<svg width="28" height="28" viewBox="0 0 28 28" fill="none" xmlns="http://www.w3.org/2000/svg">
<path fill-rule="evenodd" clip-rule="evenodd" d="M10.1127 6.19373H17.4526C18.364 6.19371 19.1162 6.1937 19.729 6.24376C20.3654 6.29576 20.9505 6.40736 21.5 6.68736C22.3522 7.12157 23.045 7.81441 23.4792 8.6666C23.7592 9.21612 23.8708 9.80115 23.9228 10.4376C23.9729 11.0503 23.9729 11.8026 23.9728 12.714V17.7894C23.9729 18.7008 23.9729 19.4531 23.9228 20.0658C23.8708 20.7022 23.7592 21.2873 23.4792 21.8368C23.045 22.689 22.3522 23.3818 21.5 23.816C20.9505 24.096 20.3654 24.2076 19.729 24.2596C19.1162 24.3097 18.364 24.3097 17.4525 24.3097H10.1127C9.20127 24.3097 8.44904 24.3097 7.83626 24.2596C7.19983 24.2076 6.6148 24.096 6.06528 23.816C5.21309 23.3818 4.52025 22.689 4.08604 21.8368C3.80604 21.2873 3.69444 20.7022 3.64245 20.0658C3.59238 19.453 3.59239 18.7008 3.59241 17.7894V12.714C3.59239 11.8026 3.59238 11.0503 3.64245 10.4376C3.69444 9.80115 3.80604 9.21612 4.08604 8.6666C4.52025 7.81441 5.21309 7.12157 6.06528 6.68736C6.6148 6.40736 7.19983 6.29576 7.83626 6.24376C8.44903 6.1937 9.20125 6.19371 10.1127 6.19373ZM8.02067 8.50074C7.52427 8.54129 7.27042 8.61481 7.09334 8.70503C6.66724 8.92214 6.32082 9.26856 6.10372 9.69465C6.01349 9.87174 5.93998 10.1256 5.89942 10.622C5.85778 11.1316 5.8569 11.7909 5.8569 12.7608V17.7426C5.8569 18.7125 5.85778 19.3718 5.89942 19.8814C5.93998 20.3778 6.01349 20.6317 6.10372 20.8087C6.32082 21.2348 6.66724 21.5813 7.09334 21.7984C7.27042 21.8886 7.52427 21.9621 8.02067 22.0027C8.53028 22.0443 9.18958 22.0452 10.1594 22.0452H17.4058C18.3757 22.0452 19.035 22.0443 19.5446 22.0027C20.041 21.9621 20.2948 21.8886 20.4719 21.7984C20.898 21.5813 21.2444 21.2348 21.4615 20.8087C21.5518 20.6317 21.6253 20.3778 21.6658 19.8814C21.7075 19.3718 21.7083 18.7125 21.7083 17.7426V12.7608C21.7083 11.7909 21.7075 11.1316 21.6658 10.622C21.6253 10.1256 21.5518 9.87174 21.4615 9.69465C21.2444 9.26856 20.898 8.92214 20.4719 8.70503C20.2948 8.61481 20.041 8.54129 19.5446 8.50074C19.035 8.4591 18.3757 8.45822 17.4058 8.45822H10.1594C9.18958 8.45822 8.53028 8.4591 8.02067 8.50074Z" fill="#262E3D"/>
<path d="M10.386 5.06157C10.386 4.43625 9.87903 3.92932 9.25371 3.92932C8.62838 3.92932 8.12146 4.43625 8.12146 5.06157V7.32606C8.12146 7.95138 8.62838 8.45831 9.25371 8.45831C9.87903 8.45831 10.386 7.95138 10.386 7.32606V5.06157Z" fill="#262E3D"/>
<path d="M19.4439 5.06157C19.4439 4.43625 18.937 3.92932 18.3117 3.92932C17.6864 3.92932 17.1794 4.43625 17.1794 5.06157V7.32606C17.1794 7.95138 17.6864 8.45831 18.3117 8.45831C18.937 8.45831 19.4439 7.95138 19.4439 7.32606V5.06157Z" fill="#262E3D"/>
<path d="M11.5182 10.7228C10.8928 10.7228 10.3859 11.2297 10.3859 11.855C10.3859 12.4803 10.8928 12.9873 11.5182 12.9873H12.6504V17.5163H11.5182C10.8928 17.5163 10.3859 18.0232 10.3859 18.6485C10.3859 19.2738 10.8928 19.7807 11.5182 19.7807H16.0472C16.6725 19.7807 17.1794 19.2738 17.1794 18.6485C17.1794 18.0232 16.6725 17.5163 16.0472 17.5163H14.9149V11.855C14.9149 11.2297 14.408 10.7228 13.7827 10.7228H11.5182Z" fill="#262E3D"/>
</svg>
