<svg width="28" height="28" viewBox="0 0 28 28" fill="none" xmlns="http://www.w3.org/2000/svg">
<path fill-rule="evenodd" clip-rule="evenodd" d="M11.9226 3.71204H16.0873C17.1083 3.71203 17.932 3.71202 18.6023 3.75776C19.2915 3.80478 19.901 3.90393 20.4781 4.14297C21.8652 4.71755 22.9673 5.81965 23.5419 7.20681C23.781 7.78391 23.8801 8.39338 23.9271 9.08263C23.9729 9.75292 23.9729 10.5765 23.9728 11.5975V11.678C23.9729 12.699 23.9729 13.5226 23.9271 14.1929C23.8801 14.8821 23.781 15.4916 23.5419 16.0687C22.9673 17.4559 21.8652 18.558 20.4781 19.1325C19.901 19.3716 19.2915 19.4707 18.6023 19.5178C17.932 19.5635 17.1083 19.5635 16.0873 19.5635H13.1356C12.6153 19.5635 12.5115 19.5687 12.4269 19.5858C12.2297 19.6255 12.0466 19.717 11.8965 19.8509C11.8321 19.9084 11.7657 19.9883 11.4534 20.4046L11.429 20.4371C10.7432 21.3516 10.1967 22.0803 9.74947 22.6071C9.32909 23.1023 8.85391 23.6004 8.2868 23.8348C6.72631 24.4799 4.92891 23.8808 4.06757 22.4284C3.75454 21.9006 3.67323 21.217 3.63406 20.5686C3.5924 19.8788 3.5924 18.968 3.59241 17.8249V12.0422C3.5924 10.8151 3.59239 9.82532 3.65787 9.02383C3.7253 8.19859 3.86775 7.47374 4.20945 6.80312C4.75221 5.73789 5.61826 4.87184 6.68349 4.32907C7.35411 3.98738 8.07896 3.84493 8.9042 3.7775C9.70569 3.71202 10.6955 3.71203 11.9226 3.71204ZM9.0886 6.03447C8.4034 6.09046 8.00974 6.19482 7.71155 6.34675C7.07241 6.67241 6.55278 7.19204 6.22712 7.83118C6.07519 8.12936 5.97083 8.52303 5.91484 9.20823C5.85778 9.90665 5.8569 10.8037 5.8569 12.0907V17.7842C5.8569 18.9771 5.8574 19.819 5.89444 20.4321C5.91276 20.7354 5.93837 20.9486 5.96847 21.0988C5.99398 21.2261 6.01623 21.2739 6.01746 21.2769C6.30469 21.7572 6.89983 21.9556 7.41777 21.7437C7.42058 21.742 7.467 21.7172 7.56384 21.6306C7.67805 21.5285 7.82646 21.3733 8.02309 21.1417C8.42056 20.6734 8.92612 20.0002 9.64184 19.0459C9.65825 19.024 9.6745 19.0023 9.69062 18.9808C9.9265 18.6657 10.1338 18.3889 10.3888 18.1614C10.839 17.7596 11.3882 17.485 11.9799 17.3658C12.3149 17.2984 12.6607 17.2986 13.0543 17.2989C13.0812 17.299 13.1083 17.299 13.1356 17.299H16.0471C17.1177 17.299 17.864 17.2984 18.4481 17.2585C19.0221 17.2194 19.3563 17.1461 19.6115 17.0404C20.4438 16.6957 21.105 16.0344 21.4498 15.2021C21.5555 14.9469 21.6287 14.6127 21.6679 14.0387C21.7077 13.4546 21.7083 12.7084 21.7083 11.6378C21.7083 10.5671 21.7077 9.82089 21.6679 9.23677C21.6287 8.66283 21.5555 8.32858 21.4498 8.07339C21.105 7.2411 20.4438 6.57984 19.6115 6.23509C19.3563 6.12939 19.0221 6.05616 18.4481 6.017C17.864 5.97714 17.1177 5.97653 16.0471 5.97653H11.971C10.6841 5.97653 9.78702 5.97741 9.0886 6.03447Z" fill="#262E3D"/>
<path d="M9.25371 12.77C9.87903 12.77 10.386 12.2631 10.386 11.6377C10.386 11.0124 9.87903 10.5055 9.25371 10.5055C8.62838 10.5055 8.12146 11.0124 8.12146 11.6377C8.12146 12.2631 8.62838 12.77 9.25371 12.77Z" fill="#262E3D"/>
<path d="M14.9149 11.6377C14.9149 12.2631 14.408 12.77 13.7827 12.77C13.1574 12.77 12.6504 12.2631 12.6504 11.6377C12.6504 11.0124 13.1574 10.5055 13.7827 10.5055C14.408 10.5055 14.9149 11.0124 14.9149 11.6377Z" fill="#262E3D"/>
<path d="M19.4439 11.6377C19.4439 12.2631 18.937 12.77 18.3117 12.77C17.6864 12.77 17.1794 12.2631 17.1794 11.6377C17.1794 11.0124 17.6864 10.5055 18.3117 10.5055C18.937 10.5055 19.4439 11.0124 19.4439 11.6377Z" fill="#262E3D"/>
</svg>
