<svg width="23" height="22" viewBox="0 0 23 22" fill="none" xmlns="http://www.w3.org/2000/svg">
<path d="M11.4851 15.086C11.1683 15.0866 10.8613 14.9761 10.6173 14.7735L3.83767 9.33872C3.56077 9.1081 3.38663 8.7767 3.35358 8.41742C3.32052 8.05815 3.43125 7.70043 3.6614 7.42296C3.89155 7.14549 4.22228 6.971 4.58082 6.93788C4.93937 6.90475 5.29635 7.01571 5.57326 7.24633L11.4851 11.9746L17.3969 7.46372C17.5356 7.35086 17.6952 7.26658 17.8665 7.21572C18.0378 7.16486 18.2175 7.14843 18.3951 7.16737C18.5728 7.18631 18.745 7.24024 18.9018 7.32608C19.0586 7.41191 19.1969 7.52795 19.3088 7.66753C19.433 7.80723 19.527 7.97112 19.585 8.14894C19.6431 8.32676 19.6638 8.51467 19.646 8.70089C19.6282 8.88712 19.5722 9.06765 19.4815 9.23118C19.3908 9.39471 19.2674 9.53771 19.119 9.65122L12.3393 14.855C12.0884 15.0256 11.7876 15.1069 11.4851 15.086Z" fill="#262E3D"/>
</svg>
