<svg width="28" height="29" viewBox="0 0 28 29" fill="none" xmlns="http://www.w3.org/2000/svg">
<path fill-rule="evenodd" clip-rule="evenodd" d="M19.4801 4.36414H19.4076C18.911 4.36412 18.4824 4.36411 18.1278 4.38831C17.7543 4.41379 17.3808 4.46984 17.0117 4.6227C16.1794 4.96745 15.5182 5.6287 15.1734 6.461C15.0206 6.83003 14.9645 7.20357 14.939 7.57702C14.9148 7.93169 14.9149 8.36022 14.9149 8.85686V8.92934C14.9149 9.42598 14.9148 9.85455 14.939 10.2092C14.9645 10.5827 15.0206 10.9562 15.1734 11.3252C15.5182 12.1575 16.1794 12.8188 17.0117 13.1635C17.3808 13.3164 17.7543 13.3725 18.1278 13.3979C18.4824 13.4221 18.9109 13.4221 19.4076 13.4221H19.4801C19.9767 13.4221 20.4053 13.4221 20.76 13.3979C21.1334 13.3725 21.5069 13.3164 21.876 13.1635C22.7083 12.8188 23.3695 12.1575 23.7143 11.3252C23.8671 10.9562 23.9232 10.5827 23.9487 10.2092C23.9729 9.85454 23.9729 9.426 23.9728 8.92934V8.8569C23.9729 8.36024 23.9729 7.9317 23.9487 7.57702C23.9232 7.20357 23.8671 6.83003 23.7143 6.461C23.3695 5.6287 22.7083 4.96745 21.876 4.6227C21.5069 4.46984 21.1334 4.41379 20.76 4.38831C20.4053 4.36411 19.9767 4.36412 19.4801 4.36414ZM17.8783 6.71482C17.9254 6.6953 18.0238 6.66516 18.2819 6.64755C18.5502 6.62924 18.9008 6.62863 19.4439 6.62863C19.9869 6.62863 20.3375 6.62924 20.6058 6.64755C20.864 6.66516 20.9623 6.6953 21.0094 6.71482C21.2868 6.82973 21.5072 7.05015 21.6222 7.32758C21.6417 7.3747 21.6718 7.47302 21.6894 7.73117C21.7077 7.99949 21.7083 8.35007 21.7083 8.89312C21.7083 9.43618 21.7077 9.78676 21.6894 10.0551C21.6718 10.3132 21.6417 10.4115 21.6222 10.4587C21.5072 10.7361 21.2868 10.9565 21.0094 11.0714C20.9623 11.0909 20.864 11.1211 20.6058 11.1387C20.3375 11.157 19.9869 11.1576 19.4439 11.1576C18.9008 11.1576 18.5502 11.157 18.2819 11.1387C18.0238 11.1211 17.9254 11.0909 17.8783 11.0714C17.6009 10.9565 17.3805 10.7361 17.2656 10.4587C17.246 10.4115 17.2159 10.3132 17.1983 10.0551C17.18 9.78676 17.1794 9.43618 17.1794 8.89312C17.1794 8.35007 17.18 7.99949 17.1983 7.73117C17.2159 7.47302 17.246 7.3747 17.2656 7.32758C17.3805 7.05015 17.6009 6.82973 17.8783 6.71482Z" fill="#262E3D"/>
<path fill-rule="evenodd" clip-rule="evenodd" d="M8.08518 15.6866H8.15761C8.65425 15.6866 9.08282 15.6866 9.4375 15.7108C9.81095 15.7363 10.1845 15.7923 10.5535 15.9452C11.3858 16.2899 12.0471 16.9512 12.3918 17.7835C12.5447 18.1525 12.6007 18.526 12.6262 18.8995C12.6504 19.2542 12.6504 19.6827 12.6504 20.1793V20.2518C12.6504 20.7484 12.6504 21.177 12.6262 21.5317C12.6007 21.9051 12.5447 22.2787 12.3918 22.6477C12.0471 23.48 11.3858 24.1413 10.5535 24.486C10.1845 24.6389 9.81095 24.6949 9.4375 24.7204C9.08281 24.7446 8.65427 24.7446 8.15761 24.7446H8.08517C7.58852 24.7446 7.15998 24.7446 6.80529 24.7204C6.43184 24.6949 6.0583 24.6389 5.68927 24.486C4.85698 24.1413 4.19572 23.48 3.85097 22.6477C3.69811 22.2787 3.64206 21.9051 3.61658 21.5317C3.59238 21.177 3.59239 20.7485 3.59241 20.2519V20.1794C3.59239 19.6827 3.59238 19.2542 3.61658 18.8995C3.64206 18.526 3.69811 18.1525 3.85097 17.7835C4.19572 16.9512 4.85698 16.2899 5.68927 15.9452C6.0583 15.7923 6.43184 15.7363 6.80529 15.7108C7.15996 15.6866 7.58854 15.6866 8.08518 15.6866ZM6.95944 17.97C6.70129 17.9876 6.60297 18.0178 6.55586 18.0373C6.27842 18.1522 6.05801 18.3726 5.94309 18.65C5.92357 18.6972 5.89344 18.7955 5.87582 19.0536C5.85751 19.3219 5.8569 19.6725 5.8569 20.2156C5.8569 20.7586 5.85751 21.1092 5.87582 21.3775C5.89344 21.6357 5.92357 21.734 5.94309 21.7811C6.05801 22.0586 6.27842 22.279 6.55586 22.3939C6.60297 22.4134 6.70129 22.4435 6.95944 22.4612C7.22776 22.4795 7.57834 22.4801 8.12139 22.4801C8.66445 22.4801 9.01503 22.4795 9.28335 22.4612C9.5415 22.4435 9.63982 22.4134 9.68693 22.3939C9.96436 22.279 10.1848 22.0586 10.2997 21.7811C10.3192 21.734 10.3494 21.6357 10.367 21.3775C10.3853 21.1092 10.3859 20.7586 10.3859 20.2156C10.3859 19.6725 10.3853 19.3219 10.367 19.0536C10.3494 18.7955 10.3192 18.6972 10.2997 18.65C10.1848 18.3726 9.96436 18.1522 9.68693 18.0373C9.63982 18.0178 9.5415 17.9876 9.28335 17.97C9.01503 17.9517 8.66445 17.9511 8.12139 17.9511C7.57834 17.9511 7.22776 17.9517 6.95944 17.97Z" fill="#262E3D"/>
<path fill-rule="evenodd" clip-rule="evenodd" d="M19.4076 15.6866H19.4801C19.9767 15.6866 20.4053 15.6866 20.76 15.7108C21.1334 15.7363 21.5069 15.7923 21.876 15.9452C22.7083 16.2899 23.3695 16.9512 23.7143 17.7835C23.8671 18.1525 23.9232 18.526 23.9487 18.8995C23.9729 19.2542 23.9729 19.6827 23.9728 20.1794V20.2518C23.9729 20.7485 23.9729 21.177 23.9487 21.5317C23.9232 21.9051 23.8671 22.2787 23.7143 22.6477C23.3695 23.48 22.7083 24.1413 21.876 24.486C21.5069 24.6389 21.1334 24.6949 20.76 24.7204C20.4053 24.7446 19.9767 24.7446 19.4801 24.7446H19.4076C18.911 24.7446 18.4824 24.7446 18.1278 24.7204C17.7543 24.6949 17.3808 24.6389 17.0117 24.486C16.1794 24.1413 15.5182 23.48 15.1734 22.6477C15.0206 22.2787 14.9645 21.9051 14.939 21.5317C14.9148 21.177 14.9149 20.7485 14.9149 20.2519V20.1794C14.9149 19.6827 14.9148 19.2542 14.939 18.8995C14.9645 18.526 15.0206 18.1525 15.1734 17.7835C15.5182 16.9512 16.1794 16.2899 17.0117 15.9452C17.3808 15.7923 17.7543 15.7363 18.1278 15.7108C18.4824 15.6866 18.911 15.6866 19.4076 15.6866ZM18.2819 17.97C18.0238 17.9876 17.9254 18.0178 17.8783 18.0373C17.6009 18.1522 17.3805 18.3726 17.2656 18.65C17.246 18.6972 17.2159 18.7955 17.1983 19.0536C17.18 19.3219 17.1794 19.6725 17.1794 20.2156C17.1794 20.7586 17.18 21.1092 17.1983 21.3775C17.2159 21.6357 17.246 21.734 17.2656 21.7811C17.3805 22.0586 17.6009 22.279 17.8783 22.3939C17.9254 22.4134 18.0238 22.4435 18.2819 22.4612C18.5502 22.4795 18.9008 22.4801 19.4439 22.4801C19.9869 22.4801 20.3375 22.4795 20.6058 22.4612C20.864 22.4435 20.9623 22.4134 21.0094 22.3939C21.2868 22.279 21.5072 22.0586 21.6222 21.7811C21.6417 21.734 21.6718 21.6357 21.6894 21.3775C21.7077 21.1092 21.7083 20.7586 21.7083 20.2156C21.7083 19.6725 21.7077 19.3219 21.6894 19.0536C21.6718 18.7955 21.6417 18.6972 21.6222 18.65C21.5072 18.3726 21.2868 18.1522 21.0094 18.0373C20.9623 18.0178 20.864 17.9876 20.6058 17.97C20.3375 17.9517 19.9869 17.9511 19.4439 17.9511C18.9008 17.9511 18.5502 17.9517 18.2819 17.97Z" fill="#262E3D"/>
<path fill-rule="evenodd" clip-rule="evenodd" d="M8.08518 4.36414H8.15761C8.65427 4.36412 9.08281 4.36411 9.4375 4.38831C9.81095 4.41379 10.1845 4.46984 10.5535 4.6227C11.3858 4.96745 12.0471 5.6287 12.3918 6.461C12.5447 6.83003 12.6007 7.20357 12.6262 7.57702C12.6504 7.9317 12.6504 8.36024 12.6504 8.8569V8.92934C12.6504 9.426 12.6504 9.85454 12.6262 10.2092C12.6007 10.5827 12.5447 10.9562 12.3918 11.3252C12.0471 12.1575 11.3858 12.8188 10.5535 13.1635C10.1845 13.3164 9.81095 13.3725 9.4375 13.3979C9.08281 13.4221 8.65427 13.4221 8.15761 13.4221H8.08517C7.58852 13.4221 7.15998 13.4221 6.80529 13.3979C6.43184 13.3725 6.0583 13.3164 5.68927 13.1635C4.85698 12.8188 4.19572 12.1575 3.85097 11.3252C3.69811 10.9562 3.64206 10.5827 3.61658 10.2092C3.59238 9.85454 3.59239 9.426 3.59241 8.92934V8.85691C3.59239 8.36025 3.59238 7.93171 3.61658 7.57702C3.64206 7.20357 3.69811 6.83003 3.85097 6.461C4.19572 5.6287 4.85698 4.96745 5.68927 4.6227C6.0583 4.46984 6.43184 4.41379 6.80529 4.38831C7.15998 4.36411 7.58852 4.36412 8.08518 4.36414ZM6.95944 6.64755C6.70129 6.66516 6.60297 6.6953 6.55586 6.71482C6.27842 6.82973 6.058 7.05015 5.94309 7.32758C5.92357 7.3747 5.89344 7.47302 5.87582 7.73117C5.85751 7.99949 5.8569 8.35007 5.8569 8.89312C5.8569 9.43618 5.85751 9.78676 5.87582 10.0551C5.89344 10.3132 5.92357 10.4115 5.94309 10.4587C6.058 10.7361 6.27842 10.9565 6.55586 11.0714C6.60297 11.0909 6.70129 11.1211 6.95944 11.1387C7.22776 11.157 7.57834 11.1576 8.12139 11.1576C8.66445 11.1576 9.01503 11.157 9.28335 11.1387C9.5415 11.1211 9.63982 11.0909 9.68693 11.0714C9.96436 10.9565 10.1848 10.7361 10.2997 10.4587C10.3192 10.4115 10.3494 10.3132 10.367 10.0551C10.3853 9.78676 10.3859 9.43618 10.3859 8.89312C10.3859 8.35007 10.3853 7.99949 10.367 7.73117C10.3494 7.47302 10.3192 7.3747 10.2997 7.32758C10.1848 7.05015 9.96436 6.82973 9.68693 6.71482C9.63982 6.6953 9.5415 6.66516 9.28335 6.64755C9.01503 6.62924 8.66445 6.62863 8.12139 6.62863C7.57834 6.62863 7.22776 6.62924 6.95944 6.64755Z" fill="#262E3D"/>
</svg>
