<svg width="28" height="28" viewBox="0 0 28 28" fill="none" xmlns="http://www.w3.org/2000/svg">
<path fill-rule="evenodd" clip-rule="evenodd" d="M13.2165 2.3623C12.2785 2.3623 11.5181 3.12269 11.5181 4.06067V4.47328C11.5181 4.73159 11.3427 4.95535 11.0959 5.03186C10.5626 5.19726 10.0504 5.41061 9.56435 5.66686C9.33581 5.78735 9.05346 5.75321 8.87078 5.57052L8.57852 5.27827C7.91527 4.61501 6.83992 4.61501 6.17667 5.27827L5.37605 6.07889C4.71279 6.74214 4.71279 7.81749 5.37605 8.48074L5.6683 8.773C5.85099 8.95569 5.88513 9.23803 5.76464 9.46657C5.5084 9.95263 5.29506 10.4648 5.12967 10.9981C5.05315 11.2448 4.82939 11.4203 4.57108 11.4203H4.15845C3.22047 11.4203 2.46008 12.1807 2.46008 13.1186V14.2509C2.46008 15.1889 3.22047 15.9493 4.15845 15.9493H4.57108C4.82939 15.9493 5.05314 16.1247 5.12966 16.3714C5.29506 16.9047 5.5084 17.4169 5.76464 17.903C5.88513 18.1315 5.85099 18.4139 5.6683 18.5965L5.37605 18.8888C4.71279 19.552 4.71279 20.6274 5.37605 21.2906L6.17667 22.0913C6.83992 22.7545 7.91527 22.7545 8.57852 22.0913L8.87078 21.799C9.05346 21.6163 9.33581 21.5822 9.56435 21.7027C10.0504 21.9589 10.5626 22.1723 11.0959 22.3377C11.3427 22.4142 11.5181 22.6379 11.5181 22.8963V23.3089C11.5181 24.2468 12.2785 25.0072 13.2165 25.0072H14.3487C15.2867 25.0072 16.0471 24.2468 16.0471 23.3089V22.8962C16.0471 22.6379 16.2226 22.4142 16.4693 22.3376C17.0025 22.1722 17.5147 21.9589 18.0007 21.7027C18.2293 21.5822 18.5116 21.6163 18.6943 21.799L18.9866 22.0913C19.6498 22.7545 20.7252 22.7545 21.3884 22.0913L22.189 21.2906C22.8523 20.6274 22.8523 19.552 22.189 18.8888L21.8968 18.5965C21.7141 18.4138 21.68 18.1315 21.8005 17.903C22.0567 17.4169 22.27 16.9047 22.4354 16.3714C22.5119 16.1247 22.7357 15.9493 22.994 15.9493H23.4066C24.3446 15.9493 25.105 15.1889 25.105 14.2509V13.1186C25.105 12.1807 24.3446 11.4203 23.4066 11.4203H22.994C22.7357 11.4203 22.5119 11.2448 22.4354 10.9981C22.27 10.4648 22.0567 9.95263 21.8005 9.46658C21.68 9.23803 21.7141 8.95569 21.8968 8.773L22.189 8.48074C22.8523 7.81749 22.8523 6.74214 22.189 6.07889L21.3884 5.27827C20.7252 4.61501 19.6498 4.61501 18.9866 5.27827L18.6943 5.57052C18.5116 5.75321 18.2293 5.78735 18.0007 5.66686C17.5147 5.41063 17.0025 5.1973 16.4693 5.03191C16.2226 4.95539 16.0471 4.73163 16.0471 4.47332V4.06067C16.0471 3.12269 15.2867 2.3623 14.3487 2.3623H13.2165ZM13.7825 17.0815C15.6585 17.0815 17.1793 15.5607 17.1793 13.6848C17.1793 11.8088 15.6585 10.288 13.7825 10.288C11.9066 10.288 10.3858 11.8088 10.3858 13.6848C10.3858 15.5607 11.9066 17.0815 13.7825 17.0815Z" fill="#262E3D"/>
</svg>
