<svg width="28" height="28" viewBox="0 0 28 28" fill="none" xmlns="http://www.w3.org/2000/svg">
<path fill-rule="evenodd" clip-rule="evenodd" d="M12.6504 22.2627C12.6504 23.5133 11.6366 24.5272 10.386 24.5272C9.13531 24.5272 8.12146 23.5133 8.12146 22.2627C8.12146 21.012 9.13531 19.9982 10.386 19.9982C11.6366 19.9982 12.6504 21.012 12.6504 22.2627ZM21.7084 22.2627C21.7084 23.5133 20.6946 24.5272 19.4439 24.5272C18.1933 24.5272 17.1794 23.5133 17.1794 22.2627C17.1794 21.012 18.1933 19.9982 19.4439 19.9982C20.6946 19.9982 21.7084 21.012 21.7084 22.2627Z" fill="#262E3D"/>
<path fill-rule="evenodd" clip-rule="evenodd" d="M3.59241 5.27897C3.59241 4.65365 4.09933 4.14673 4.72465 4.14673H5.13271C6.75187 4.14673 8.14594 5.2896 8.46348 6.87731L8.59671 7.54347H21.1387C23.0162 7.54347 24.3734 9.33791 23.8624 11.1445L22.6979 15.2615C22.2842 16.724 20.9493 17.7337 19.4294 17.7337H11.1101C9.49092 17.7337 8.09685 16.5908 7.7793 15.0031L6.24297 7.32142C6.13712 6.79218 5.67243 6.41122 5.13271 6.41122H4.72465C4.09933 6.41122 3.59241 5.9043 3.59241 5.27897ZM9.04961 9.80796L9.99982 14.559C10.1057 15.0882 10.5704 15.4692 11.1101 15.4692H19.4294C19.936 15.4692 20.381 15.1326 20.5189 14.6451L21.6834 10.5282C21.7856 10.1668 21.5142 9.80796 21.1387 9.80796H9.04961Z" fill="#262E3D"/>
</svg>
