<svg width="23" height="22" viewBox="0 0 23 22" fill="none" xmlns="http://www.w3.org/2000/svg">
<path fill-rule="evenodd" clip-rule="evenodd" d="M4.16312 0.364197C1.91196 0.364197 0.0870361 2.18912 0.0870361 4.44028V17.0391C0.0870361 19.2902 1.91196 21.1152 4.16312 21.1152H18.837C21.0882 21.1152 22.9131 19.2902 22.9131 17.0391V4.44028C22.9131 2.18912 21.0882 0.364197 18.837 0.364197H4.16312ZM12.3502 2.43965C10.8495 2.43965 9.63285 3.65627 9.63285 5.15705V16.323C9.63285 17.8238 10.8495 19.0404 12.3502 19.0404H17.9135C19.4142 19.0404 20.6309 17.8238 20.6309 16.323V5.15705C20.6309 3.65627 19.4142 2.43965 17.9135 2.43965H12.3502Z" fill="#676E85"/>
</svg>
