<svg xmlns="http://www.w3.org/2000/svg" width="24" height="24" viewBox="0 0 24 24" fill="none">
  <g clip-path="url(#clip0_298_2905)">
    <path d="M9.87823 18.122C10.1568 18.4008 10.4876 18.6219 10.8517 18.7728C11.2158 18.9237 11.6061 19.0014 12.0002 19.0014C12.3944 19.0014 12.7846 18.9237 13.1487 18.7728C13.5128 18.6219 13.8436 18.4008 14.1222 18.122L17.3332 14.911C17.5054 14.7206 17.5977 14.4713 17.5911 14.2147C17.5846 13.958 17.4795 13.7138 17.2978 13.5325C17.1161 13.3512 16.8716 13.2467 16.615 13.2406C16.3584 13.2346 16.1093 13.3274 15.9192 13.5L12.9932 16.427L13.0002 1C13.0002 0.734784 12.8949 0.48043 12.7073 0.292893C12.5198 0.105357 12.2654 0 12.0002 0V0C11.735 0 11.4807 0.105357 11.2931 0.292893C11.1056 0.48043 11.0002 0.734784 11.0002 1L10.9912 16.408L8.08123 13.5C7.89359 13.3125 7.63914 13.2072 7.37387 13.2073C7.1086 13.2074 6.85423 13.3129 6.66673 13.5005C6.47922 13.6881 6.37393 13.9426 6.37402 14.2079C6.37412 14.4731 6.47959 14.7275 6.66723 14.915L9.87823 18.122Z" fill="#3A4F39"/>
    <path d="M23 16C22.7348 16 22.4804 16.1054 22.2929 16.2929C22.1054 16.4804 22 16.7348 22 17V21C22 21.2652 21.8946 21.5196 21.7071 21.7071C21.5196 21.8946 21.2652 22 21 22H3C2.73478 22 2.48043 21.8946 2.29289 21.7071C2.10536 21.5196 2 21.2652 2 21V17C2 16.7348 1.89464 16.4804 1.70711 16.2929C1.51957 16.1054 1.26522 16 1 16C0.734784 16 0.48043 16.1054 0.292893 16.2929C0.105357 16.4804 0 16.7348 0 17L0 21C0 21.7956 0.31607 22.5587 0.87868 23.1213C1.44129 23.6839 2.20435 24 3 24H21C21.7956 24 22.5587 23.6839 23.1213 23.1213C23.6839 22.5587 24 21.7956 24 21V17C24 16.7348 23.8946 16.4804 23.7071 16.2929C23.5196 16.1054 23.2652 16 23 16Z" fill="#3A4F39"/>
  </g>
  <defs>
    <clipPath id="clip0_298_2905">
      <rect width="24" height="24" fill="white"/>
    </clipPath>
  </defs>
</svg>