<svg width="28" height="28" viewBox="0 0 28 28" fill="none" xmlns="http://www.w3.org/2000/svg">
<path fill-rule="evenodd" clip-rule="evenodd" d="M12.6504 9.59062C12.6504 8.9653 13.1574 8.45837 13.7827 8.45837H18.3117C18.937 8.45837 19.4439 8.9653 19.4439 9.59062C19.4439 10.2159 18.937 10.7229 18.3117 10.7229H13.7827C13.1574 10.7229 12.6504 10.2159 12.6504 9.59062ZM13.7827 12.9874C13.1574 12.9874 12.6504 13.4943 12.6504 14.1196C12.6504 14.7449 13.1574 15.2519 13.7827 15.2519H18.3117C18.937 15.2519 19.4439 14.7449 19.4439 14.1196C19.4439 13.4943 18.937 12.9874 18.3117 12.9874H13.7827ZM13.7827 17.5163C13.1574 17.5163 12.6504 18.0233 12.6504 18.6486C12.6504 19.2739 13.1574 19.7808 13.7827 19.7808H18.3117C18.937 19.7808 19.4439 19.2739 19.4439 18.6486C19.4439 18.0233 18.937 17.5163 18.3117 17.5163H13.7827ZM9.25371 19.7808C9.87903 19.7808 10.386 19.2739 10.386 18.6486C10.386 18.0233 9.87903 17.5163 9.25371 17.5163C8.62838 17.5163 8.12146 18.0233 8.12146 18.6486C8.12146 19.2739 8.62838 19.7808 9.25371 19.7808ZM10.386 14.1196C10.386 14.7449 9.87903 15.2519 9.25371 15.2519C8.62838 15.2519 8.12146 14.7449 8.12146 14.1196C8.12146 13.4943 8.62838 12.9874 9.25371 12.9874C9.87903 12.9874 10.386 13.4943 10.386 14.1196ZM9.25371 10.7229C9.87903 10.7229 10.386 10.2159 10.386 9.59062C10.386 8.9653 9.87903 8.45837 9.25371 8.45837C8.62838 8.45837 8.12146 8.9653 8.12146 9.59062C8.12146 10.2159 8.62838 10.7229 9.25371 10.7229Z" fill="#262E3D"/>
<path fill-rule="evenodd" clip-rule="evenodd" d="M11.9226 3.92932H15.6427C16.8698 3.92931 17.8596 3.9293 18.661 3.99479C19.4863 4.06221 20.2111 4.20466 20.8818 4.54636C21.947 5.08912 22.813 5.95518 23.3558 7.02041C23.6975 7.69103 23.84 8.41588 23.9074 9.24112C23.9729 10.0426 23.9729 11.0323 23.9728 12.2594V15.9796C23.9729 17.2067 23.9729 18.1965 23.9074 18.998C23.84 19.8232 23.6975 20.548 23.3558 21.2187C22.813 22.2839 21.947 23.15 20.8818 23.6927C20.2111 24.0344 19.4863 24.1769 18.661 24.2443C17.8596 24.3098 16.8698 24.3098 15.6427 24.3098H11.9225C10.6954 24.3098 9.70569 24.3098 8.9042 24.2443C8.07896 24.1769 7.35411 24.0344 6.68349 23.6927C5.61826 23.15 4.75221 22.2839 4.20945 21.2187C3.86775 20.548 3.7253 19.8232 3.65787 18.998C3.59239 18.1965 3.5924 17.2067 3.59241 15.9796V12.2595C3.5924 11.0324 3.59239 10.0426 3.65787 9.24112C3.7253 8.41588 3.86775 7.69103 4.20945 7.02041C4.75221 5.95518 5.61826 5.08912 6.68349 4.54636C7.35411 4.20466 8.07896 4.06221 8.9042 3.99479C9.70569 3.9293 10.6955 3.92931 11.9226 3.92932ZM9.0886 6.25176C8.4034 6.30774 8.00974 6.41211 7.71155 6.56404C7.07241 6.88969 6.55278 7.40933 6.22712 8.04847C6.07519 8.34665 5.97083 8.74032 5.91484 9.42552C5.85778 10.1239 5.8569 11.021 5.8569 12.3079V15.9311C5.8569 17.2181 5.85778 18.1151 5.91484 18.8136C5.97083 19.4988 6.07519 19.8924 6.22712 20.1906C6.55278 20.8298 7.07241 21.3494 7.71155 21.675C8.00974 21.827 8.4034 21.9313 9.0886 21.9873C9.78702 22.0444 10.6841 22.0453 11.971 22.0453H15.5942C16.8811 22.0453 17.7782 22.0444 18.4766 21.9873C19.1618 21.9313 19.5555 21.827 19.8537 21.675C20.4928 21.3494 21.0125 20.8298 21.3381 20.1906C21.4901 19.8924 21.5944 19.4988 21.6504 18.8136C21.7075 18.1151 21.7083 17.2181 21.7083 15.9311V12.3079C21.7083 11.021 21.7075 10.1239 21.6504 9.42552C21.5944 8.74032 21.4901 8.34665 21.3381 8.04847C21.0125 7.40933 20.4928 6.88969 19.8537 6.56404C19.5555 6.41211 19.1618 6.30774 18.4766 6.25176C17.7782 6.1947 16.8811 6.19381 15.5942 6.19381H11.971C10.6841 6.19381 9.78702 6.1947 9.0886 6.25176Z" fill="#262E3D"/>
</svg>
