<svg width="20" height="20" viewBox="0 0 20 20" fill="none" xmlns="http://www.w3.org/2000/svg">
<path d="M14.1667 7.64166C14.0106 7.48646 13.7994 7.39934 13.5792 7.39934C13.3591 7.39934 13.1478 7.48646 12.9917 7.64166L10 10.5917L7.05004 7.64166C6.8939 7.48646 6.68269 7.39934 6.46254 7.39934C6.24238 7.39934 6.03117 7.48646 5.87504 7.64166C5.79693 7.71913 5.73494 7.8113 5.69263 7.91285C5.65032 8.0144 5.62854 8.12332 5.62854 8.23333C5.62854 8.34334 5.65032 8.45226 5.69263 8.55381C5.73494 8.65536 5.79693 8.74753 5.87504 8.825L9.40837 12.3583C9.48584 12.4364 9.57801 12.4984 9.67956 12.5407C9.78111 12.583 9.89003 12.6048 10 12.6048C10.11 12.6048 10.219 12.583 10.3205 12.5407C10.4221 12.4984 10.5142 12.4364 10.5917 12.3583L14.1667 8.825C14.2448 8.74753 14.3068 8.65536 14.3491 8.55381C14.3914 8.45226 14.4132 8.34334 14.4132 8.23333C14.4132 8.12332 14.3914 8.0144 14.3491 7.91285C14.3068 7.8113 14.2448 7.71913 14.1667 7.64166Z" fill="#71839B"/>
</svg>
