<svg width="20" height="20" viewBox="0 0 20 20" fill="none" xmlns="http://www.w3.org/2000/svg">
<path d="M17.0751 6.26667C17.0703 6.2447 17.0703 6.22198 17.0751 6.20001C17.071 6.18077 17.071 6.16091 17.0751 6.14167V6.06667L17.0251 5.94167C17.0047 5.90756 16.9795 5.87667 16.9501 5.85001L16.8751 5.78334H16.8334L13.5501 3.70834L10.4501 1.79167C10.3783 1.73478 10.2963 1.69233 10.2084 1.66667H10.1417C10.0672 1.65424 9.99121 1.65424 9.91672 1.66667H9.83339C9.73659 1.68808 9.64378 1.72464 9.55839 1.77501L3.33339 5.65001L3.25839 5.70834L3.18339 5.77501L3.10006 5.83334L3.05839 5.88334L3.00839 6.00834V6.08334V6.13334C3.0003 6.1886 3.0003 6.24475 3.00839 6.30001V13.575C3.00811 13.7166 3.04392 13.856 3.11245 13.9799C3.18098 14.1039 3.27996 14.2083 3.40006 14.2833L9.65006 18.15L9.77506 18.2H9.84172C9.98271 18.2447 10.1341 18.2447 10.2751 18.2H10.3417L10.4667 18.15L16.6667 14.3417C16.7868 14.2666 16.8858 14.1622 16.9543 14.0383C17.0229 13.9143 17.0587 13.775 17.0584 13.6333V6.35834C17.0584 6.35834 17.0751 6.30001 17.0751 6.26667ZM10.0001 3.47501L11.4834 4.39167L6.82506 7.27501L5.33339 6.35834L10.0001 3.47501ZM9.16672 15.975L4.58339 13.175V7.85001L9.16672 10.6833V15.975ZM10.0001 9.21667L8.40839 8.25834L13.0667 5.36667L14.6667 6.35834L10.0001 9.21667ZM15.4167 13.15L10.8334 16V10.6833L15.4167 7.85001V13.15Z" fill="#71839B"/>
</svg>
