<svg width="20" height="20" viewBox="0 0 20 20" fill="none" xmlns="http://www.w3.org/2000/svg">
<path d="M15 1.66666H5C4.33696 1.66666 3.70107 1.93006 3.23223 2.3989C2.76339 2.86774 2.5 3.50362 2.5 4.16666V13.3333C2.5 13.9964 2.76339 14.6323 3.23223 15.1011C3.70107 15.5699 4.33696 15.8333 5 15.8333H7.15833L9.40833 18.0917C9.4862 18.1689 9.57855 18.23 9.68008 18.2715C9.78161 18.3129 9.89033 18.334 10 18.3333C10.1986 18.3333 10.3907 18.2624 10.5417 18.1333L13.225 15.8333H15C15.663 15.8333 16.2989 15.5699 16.7678 15.1011C17.2366 14.6323 17.5 13.9964 17.5 13.3333V4.16666C17.5 3.50362 17.2366 2.86774 16.7678 2.3989C16.2989 1.93006 15.663 1.66666 15 1.66666ZM15.8333 13.3333C15.8333 13.5543 15.7455 13.7663 15.5893 13.9226C15.433 14.0789 15.221 14.1667 15 14.1667H12.9167C12.718 14.1666 12.526 14.2376 12.375 14.3667L10.0417 16.3667L8.09167 14.4083C8.0138 14.3311 7.92145 14.27 7.81992 14.2285C7.71839 14.1871 7.60967 14.166 7.5 14.1667H5C4.77899 14.1667 4.56702 14.0789 4.41074 13.9226C4.25446 13.7663 4.16667 13.5543 4.16667 13.3333V4.16666C4.16667 3.94565 4.25446 3.73369 4.41074 3.57741C4.56702 3.42113 4.77899 3.33333 5 3.33333H15C15.221 3.33333 15.433 3.42113 15.5893 3.57741C15.7455 3.73369 15.8333 3.94565 15.8333 4.16666V13.3333Z" fill="#71839B"/>
</svg>
