<svg width="20" height="20" viewBox="0 0 20 20" fill="none" xmlns="http://www.w3.org/2000/svg">
<path d="M9.16671 1.66666C7.51853 1.66666 5.90737 2.15541 4.53696 3.07108C3.16655 3.98676 2.09845 5.28825 1.46771 6.81097C0.836985 8.33369 0.671957 10.0092 0.9935 11.6258C1.31504 13.2423 2.10872 14.7271 3.27415 15.8926C4.43959 17.058 5.92445 17.8517 7.54096 18.1732C9.15747 18.4948 10.833 18.3297 12.3557 17.699C13.8785 17.0683 15.1799 16.0002 16.0956 14.6297C17.0113 13.2593 17.5 11.6482 17.5 10C17.5 8.90565 17.2845 7.82202 16.8657 6.81097C16.4469 5.79992 15.8331 4.88126 15.0593 4.10744C14.2854 3.33362 13.3668 2.71979 12.3557 2.301C11.3447 1.88221 10.2611 1.66666 9.16671 1.66666V1.66666ZM9.16671 16.6667C7.84817 16.6667 6.55924 16.2757 5.46291 15.5431C4.36658 14.8106 3.5121 13.7694 3.00751 12.5512C2.50293 11.333 2.37091 9.9926 2.62814 8.6994C2.88538 7.40619 3.52032 6.2183 4.45267 5.28595C5.38502 4.3536 6.5729 3.71866 7.86611 3.46143C9.15932 3.20419 10.4998 3.33622 11.7179 3.8408C12.9361 4.34539 13.9773 5.19987 14.7098 6.2962C15.4424 7.39252 15.8334 8.68146 15.8334 10C15.8334 11.7681 15.131 13.4638 13.8808 14.714C12.6305 15.9643 10.9348 16.6667 9.16671 16.6667V16.6667ZM10 9.94166V5.83333C10 5.61232 9.91225 5.40036 9.75597 5.24408C9.59969 5.0878 9.38772 5 9.16671 5C8.9457 5 8.73374 5.0878 8.57746 5.24408C8.42118 5.40036 8.33338 5.61232 8.33338 5.83333V10C8.33338 10 8.33338 10.0583 8.33338 10.0917C8.31287 10.2611 8.34487 10.4327 8.42504 10.5833L9.67504 12.75C9.78555 12.9423 9.96792 13.0828 10.182 13.1406C10.3961 13.1984 10.6244 13.1688 10.8167 13.0583C11.009 12.9478 11.1495 12.7655 11.2073 12.5514C11.2651 12.3373 11.2356 12.1089 11.125 11.9167L10 9.94166Z" fill="#71839B"/>
</svg>
