<svg width="20" height="20" viewBox="0 0 20 20" fill="none" xmlns="http://www.w3.org/2000/svg">
<path d="M16.6666 6.66667L11.6666 2.28334C11.2083 1.87338 10.6149 1.64673 9.99996 1.64673C9.38501 1.64673 8.79164 1.87338 8.33329 2.28334L3.33329 6.66667C3.0686 6.9034 2.85737 7.1938 2.71368 7.51854C2.56999 7.84328 2.49713 8.19491 2.49996 8.55V15.8333C2.49996 16.4964 2.76335 17.1323 3.23219 17.6011C3.70103 18.0699 4.33692 18.3333 4.99996 18.3333H15C15.663 18.3333 16.2989 18.0699 16.7677 17.6011C17.2366 17.1323 17.5 16.4964 17.5 15.8333V8.54167C17.5016 8.18797 17.4282 7.83795 17.2845 7.51474C17.1409 7.19152 16.9303 6.90247 16.6666 6.66667ZM11.6666 16.6667H8.33329V12.5C8.33329 12.279 8.42109 12.067 8.57737 11.9107C8.73365 11.7545 8.94561 11.6667 9.16662 11.6667H10.8333C11.0543 11.6667 11.2663 11.7545 11.4225 11.9107C11.5788 12.067 11.6666 12.279 11.6666 12.5V16.6667ZM15.8333 15.8333C15.8333 16.0544 15.7455 16.2663 15.5892 16.4226C15.4329 16.5789 15.221 16.6667 15 16.6667H13.3333V12.5C13.3333 11.837 13.0699 11.2011 12.6011 10.7322C12.1322 10.2634 11.4963 10 10.8333 10H9.16662C8.50358 10 7.8677 10.2634 7.39886 10.7322C6.93002 11.2011 6.66662 11.837 6.66662 12.5V16.6667H4.99996C4.77894 16.6667 4.56698 16.5789 4.4107 16.4226C4.25442 16.2663 4.16662 16.0544 4.16662 15.8333V8.54167C4.16677 8.42335 4.19212 8.30642 4.24097 8.19865C4.28982 8.09089 4.36107 7.99476 4.44996 7.91667L9.44996 3.54167C9.60203 3.40807 9.79753 3.33439 9.99996 3.33439C10.2024 3.33439 10.3979 3.40807 10.55 3.54167L15.55 7.91667C15.6388 7.99476 15.7101 8.09089 15.7589 8.19865C15.8078 8.30642 15.8331 8.42335 15.8333 8.54167V15.8333Z" fill="#2D68FE"/>
</svg>
