<svg width="20" height="20" viewBox="0 0 20 20" fill="none" xmlns="http://www.w3.org/2000/svg">
<path d="M5.00004 9.16667C4.83522 9.16667 4.67411 9.21554 4.53707 9.30711C4.40002 9.39868 4.29321 9.52882 4.23014 9.6811C4.16707 9.83337 4.15056 10.0009 4.18272 10.1626C4.21487 10.3242 4.29424 10.4727 4.41078 10.5893C4.52733 10.7058 4.67581 10.7852 4.83747 10.8173C4.99912 10.8495 5.16667 10.833 5.31894 10.7699C5.47121 10.7068 5.60136 10.6 5.69293 10.463C5.7845 10.3259 5.83337 10.1648 5.83337 10C5.83337 9.77899 5.74558 9.56702 5.5893 9.41074C5.43302 9.25446 5.22105 9.16667 5.00004 9.16667ZM15 9.16667C14.8352 9.16667 14.6741 9.21554 14.5371 9.30711C14.4 9.39868 14.2932 9.52882 14.2301 9.6811C14.1671 9.83337 14.1506 10.0009 14.1827 10.1626C14.2149 10.3242 14.2942 10.4727 14.4108 10.5893C14.5273 10.7058 14.6758 10.7852 14.8375 10.8173C14.9991 10.8495 15.1667 10.833 15.3189 10.7699C15.4712 10.7068 15.6014 10.6 15.6929 10.463C15.7845 10.3259 15.8334 10.1648 15.8334 10C15.8334 9.77899 15.7456 9.56702 15.5893 9.41074C15.433 9.25446 15.2211 9.16667 15 9.16667ZM16.6667 4.16667H3.33337C2.67033 4.16667 2.03445 4.43006 1.56561 4.8989C1.09677 5.36774 0.833374 6.00362 0.833374 6.66667V13.3333C0.833374 13.9964 1.09677 14.6323 1.56561 15.1011C2.03445 15.5699 2.67033 15.8333 3.33337 15.8333H16.6667C17.3297 15.8333 17.9656 15.5699 18.4345 15.1011C18.9033 14.6323 19.1667 13.9964 19.1667 13.3333V6.66667C19.1667 6.00362 18.9033 5.36774 18.4345 4.8989C17.9656 4.43006 17.3297 4.16667 16.6667 4.16667ZM17.5 13.3333C17.5 13.5543 17.4122 13.7663 17.256 13.9226C17.0997 14.0789 16.8877 14.1667 16.6667 14.1667H3.33337C3.11236 14.1667 2.9004 14.0789 2.74412 13.9226C2.58784 13.7663 2.50004 13.5543 2.50004 13.3333V6.66667C2.50004 6.44565 2.58784 6.23369 2.74412 6.07741C2.9004 5.92113 3.11236 5.83333 3.33337 5.83333H16.6667C16.8877 5.83333 17.0997 5.92113 17.256 6.07741C17.4122 6.23369 17.5 6.44565 17.5 6.66667V13.3333ZM10 7.5C9.50559 7.5 9.02224 7.64662 8.61111 7.92133C8.19999 8.19603 7.87956 8.58648 7.69034 9.04329C7.50112 9.50011 7.45161 10.0028 7.54808 10.4877C7.64454 10.9727 7.88264 11.4181 8.23227 11.7678C8.5819 12.1174 9.02736 12.3555 9.51231 12.452C9.99727 12.5484 10.4999 12.4989 10.9567 12.3097C11.4136 12.1205 11.804 11.8 12.0787 11.3889C12.3534 10.9778 12.5 10.4945 12.5 10C12.5 9.33696 12.2366 8.70107 11.7678 8.23223C11.299 7.76339 10.6631 7.5 10 7.5ZM10 10.8333C9.83522 10.8333 9.67411 10.7845 9.53706 10.6929C9.40002 10.6013 9.29321 10.4712 9.23014 10.3189C9.16707 10.1666 9.15056 9.99907 9.18272 9.83742C9.21487 9.67577 9.29424 9.52729 9.41078 9.41074C9.52733 9.2942 9.67581 9.21483 9.83746 9.18268C9.99912 9.15052 10.1667 9.16703 10.3189 9.2301C10.4712 9.29317 10.6014 9.39998 10.6929 9.53702C10.7845 9.67406 10.8334 9.83518 10.8334 10C10.8334 10.221 10.7456 10.433 10.5893 10.5893C10.433 10.7455 10.2211 10.8333 10 10.8333Z" fill="#71839B"/>
</svg>
