<svg width="220" height="80" viewBox="0 0 220 80" fill="none" xmlns="http://www.w3.org/2000/svg">
<path d="M72.8752 16.5139H80.5541L86.4293 52.4861H80.7603L79.7295 45.3431V45.4458H73.2875L72.2567 52.4861H67L72.8752 16.5139ZM79.0596 40.5639L76.5343 22.7833H76.4312L73.9574 40.5639H79.0596Z" fill="white"/>
<path d="M97.0672 53C94.3529 53 92.2743 52.2292 90.8313 50.6875C89.4226 49.1458 88.7183 46.9704 88.7183 44.1611V24.8389C88.7183 22.0296 89.4226 19.8542 90.8313 18.3125C92.2743 16.7708 94.3529 16 97.0672 16C99.7814 16 101.843 16.7708 103.252 18.3125C104.695 19.8542 105.416 22.0296 105.416 24.8389V28.6417H100.056V24.4792C100.056 22.2523 99.1115 21.1389 97.2218 21.1389C95.3321 21.1389 94.3873 22.2523 94.3873 24.4792V44.5722C94.3873 46.7648 95.3321 47.8611 97.2218 47.8611C99.1115 47.8611 100.056 46.7648 100.056 44.5722V39.0736H105.416V44.1611C105.416 46.9704 104.695 49.1458 103.252 50.6875C101.843 52.2292 99.7814 53 97.0672 53Z" fill="white"/>
<path d="M108.808 16.5139H116.899L120.507 42.2597H120.61L124.217 16.5139H132.309V52.4861H126.949V25.25H126.846L122.723 52.4861H117.981L113.858 25.25H113.755V52.4861H108.808V16.5139Z" fill="white"/>
<path d="M136.539 16.5139H152V21.6528H142.208V31.1597H149.99V36.2986H142.208V47.3472H152V52.4861H136.539V16.5139Z" fill="white"/>
<path fill-rule="evenodd" clip-rule="evenodd" d="M71.1754 14.5139H82.2541L86.7184 41.8475V24.8389C86.7184 21.7055 87.5075 18.9852 89.3549 16.9634L89.363 16.9545L89.3712 16.9458C91.2931 14.8925 93.9667 14 97.0673 14C100.161 14 102.827 14.8891 104.72 16.9543C105.687 17.9899 106.371 19.2103 106.808 20.577V14.5139H118.639L120.558 28.2148L122.478 14.5139H134.309V54.4861H124.949V51.1437L124.443 54.4861H116.261L115.756 51.1437V54.4861H106.808V48.423C106.371 49.7897 105.687 51.0101 104.72 52.0456C102.827 54.1109 100.161 55 97.0673 55C93.9667 55 91.2931 54.1075 89.3712 52.0542L89.363 52.0455L89.3549 52.0366C88.8604 51.4954 88.4417 50.9042 88.0937 50.2684L88.7826 54.4861H79.0283L78.0124 47.4458H75.0161L73.9854 54.4861H64.647L71.1754 14.5139ZM73.2876 45.4458H79.7297V45.3431L80.7604 52.4861H86.4294L80.5543 16.5139H72.8753L67.0001 52.4861H72.2569L73.2876 45.4458ZM106.808 37.0736V30.6417H98.0564V24.4792C98.0564 23.6011 97.8632 23.3156 97.8229 23.268C97.8096 23.2523 97.7914 23.233 97.7308 23.2092C97.6581 23.1806 97.5023 23.1389 97.2219 23.1389C96.9415 23.1389 96.7858 23.1806 96.7131 23.2092C96.6525 23.233 96.6343 23.2523 96.621 23.268C96.5806 23.3156 96.3874 23.6011 96.3874 24.4792V44.5722C96.3874 45.427 96.578 45.6948 96.611 45.7332C96.6219 45.7458 96.6396 45.7656 96.7033 45.7902C96.779 45.8195 96.9383 45.8611 97.2219 45.8611C97.5055 45.8611 97.6648 45.8195 97.7406 45.7902C97.8042 45.7656 97.8219 45.7458 97.8328 45.7332C97.8659 45.6948 98.0564 45.427 98.0564 44.5722V37.0736H106.808ZM113.756 25.25H113.859L117.982 52.4861H122.723L126.846 25.25H126.949V52.4861H132.309V16.5139H124.217L120.61 42.2597H120.507L116.899 16.5139H108.808V52.4861H113.756V25.25ZM134.539 14.5139H154V23.6528H144.208V29.1597H151.99V38.2986H144.208V45.3472H154V54.4861H134.539V14.5139ZM142.208 47.3472V36.2986H149.99V31.1597H142.208V21.6528H152V16.5139H136.539V52.4861H152V47.3472H142.208ZM76.4313 22.7833H76.5344L79.0597 40.5639H73.9576L76.4313 22.7833ZM76.5027 36.7838L76.2551 38.5639H76.7556L76.5027 36.7838ZM90.8314 50.6875C92.2744 52.2292 94.353 53 97.0673 53C99.7816 53 101.843 52.2292 103.252 50.6875C104.695 49.1458 105.416 46.9704 105.416 44.1611V39.0736H100.056V44.5722C100.056 46.7648 99.1116 47.8611 97.2219 47.8611C95.3322 47.8611 94.3874 46.7648 94.3874 44.5722V24.4792C94.3874 22.2523 95.3322 21.1389 97.2219 21.1389C99.1116 21.1389 100.056 22.2523 100.056 24.4792V28.6417H105.416V24.8389C105.416 22.0296 104.695 19.8542 103.252 18.3125C101.843 16.7708 99.7816 16 97.0673 16C94.353 16 92.2744 16.7708 90.8314 18.3125C89.4227 19.8542 88.7184 22.0296 88.7184 24.8389V44.1611C88.7184 46.9704 89.4227 49.1458 90.8314 50.6875Z" fill="#3A4F39"/>
<path d="M64.6445 66.0176C64.6445 67.0254 64.9961 67.8047 65.6992 68.3555C66.4023 68.9023 67.2949 69.1758 68.377 69.1758C69.4434 69.1758 70.2617 68.9629 70.832 68.5371C71.4062 68.1074 71.7285 67.5762 71.7988 66.9434L71.8047 66.873H70.3809L70.375 66.9434C70.3477 67.2012 70.1777 67.4473 69.8652 67.6816C69.5527 67.916 69.0566 68.0332 68.377 68.0332C67.6973 68.0332 67.1465 67.8633 66.7246 67.5234C66.3027 67.1836 66.0918 66.7012 66.0918 66.0762V65.584C66.0918 64.9941 66.3027 64.5215 66.7246 64.166C67.1504 63.8066 67.6992 63.627 68.3711 63.627C69.0312 63.627 69.5156 63.7441 69.8242 63.9785C70.1328 64.209 70.3164 64.4531 70.375 64.7109L70.3809 64.7871H71.8047L71.7988 64.7168C71.6855 64.0879 71.3535 63.5586 70.8027 63.1289C70.252 62.6992 69.4434 62.4844 68.377 62.4844C67.2949 62.4844 66.4023 62.7578 65.6992 63.3047C64.9961 63.8516 64.6445 64.6309 64.6445 65.6426V66.0176Z" fill="#3A4F39"/>
<path d="M73.6862 66.0176C73.6862 67.0293 74.0378 67.8086 74.7409 68.3555C75.4441 68.9023 76.3503 69.1758 77.4597 69.1758C78.5652 69.1758 79.4695 68.9023 80.1726 68.3555C80.8796 67.8086 81.2331 67.0293 81.2331 66.0176V65.6426C81.2331 64.6309 80.8796 63.8516 80.1726 63.3047C79.4695 62.7578 78.5652 62.4844 77.4597 62.4844C76.3503 62.4844 75.4441 62.7578 74.7409 63.3047C74.0378 63.8516 73.6862 64.6309 73.6862 65.6426V66.0176ZM75.1277 66.0703V65.5957C75.1277 64.9629 75.3386 64.4766 75.7605 64.1367C76.1862 63.7969 76.7527 63.627 77.4597 63.627C78.1628 63.627 78.7273 63.7969 79.153 64.1367C79.5788 64.4766 79.7917 64.9629 79.7917 65.5957V66.0703C79.7917 66.6992 79.5788 67.1836 79.153 67.5234C78.7273 67.8633 78.1628 68.0332 77.4597 68.0332C76.7527 68.0332 76.1862 67.8633 75.7605 67.5234C75.3386 67.1836 75.1277 66.6992 75.1277 66.0703Z" fill="#3A4F39"/>
<path d="M83.6362 69H85.0541V66.709H86.6069C87.5795 66.709 88.3315 66.5176 88.8627 66.1348C89.3979 65.752 89.6655 65.2422 89.6655 64.6055C89.6655 64.0039 89.3979 63.5293 88.8627 63.1816C88.3315 62.834 87.5795 62.6602 86.6069 62.6602H83.6362V69ZM85.0541 65.6016V63.7676H86.5893C87.2065 63.7676 87.6362 63.8457 87.8784 64.002C88.1245 64.1582 88.2475 64.3613 88.2475 64.6113C88.2475 64.8965 88.1245 65.1328 87.8784 65.3203C87.6362 65.5078 87.2065 65.6016 86.5893 65.6016H85.0541ZM88.4877 69H90.0815L87.978 66.1172L86.4135 66.0762L88.4877 69Z" fill="#3A4F39"/>
<path d="M92.0334 69H93.4513V66.7852H95.0802C96.0685 66.7852 96.8263 66.5938 97.3537 66.2109C97.8849 65.8281 98.1505 65.3105 98.1505 64.6582C98.1505 64.0371 97.8849 63.5488 97.3537 63.1934C96.8263 62.8379 96.0705 62.6602 95.0861 62.6602H92.0334V69ZM93.4513 65.6777V63.7676H95.0334C95.6662 63.7676 96.1076 63.8496 96.3576 64.0137C96.6115 64.1777 96.7384 64.3926 96.7384 64.6582C96.7384 64.959 96.6115 65.2051 96.3576 65.3965C96.1076 65.584 95.6662 65.6777 95.0334 65.6777H93.4513Z" fill="#3A4F39"/>
<path d="M99.8739 66.0176C99.8739 67.0293 100.225 67.8086 100.929 68.3555C101.632 68.9023 102.538 69.1758 103.647 69.1758C104.753 69.1758 105.657 68.9023 106.36 68.3555C107.067 67.8086 107.421 67.0293 107.421 66.0176V65.6426C107.421 64.6309 107.067 63.8516 106.36 63.3047C105.657 62.7578 104.753 62.4844 103.647 62.4844C102.538 62.4844 101.632 62.7578 100.929 63.3047C100.225 63.8516 99.8739 64.6309 99.8739 65.6426V66.0176ZM101.315 66.0703V65.5957C101.315 64.9629 101.526 64.4766 101.948 64.1367C102.374 63.7969 102.94 63.627 103.647 63.627C104.35 63.627 104.915 63.7969 105.341 64.1367C105.766 64.4766 105.979 64.9629 105.979 65.5957V66.0703C105.979 66.6992 105.766 67.1836 105.341 67.5234C104.915 67.8633 104.35 68.0332 103.647 68.0332C102.94 68.0332 102.374 67.8633 101.948 67.5234C101.526 67.1836 101.315 66.6992 101.315 66.0703Z" fill="#3A4F39"/>
<path d="M109.824 69H111.242V66.709H112.795C113.767 66.709 114.519 66.5176 115.05 66.1348C115.586 65.752 115.853 65.2422 115.853 64.6055C115.853 64.0039 115.586 63.5293 115.05 63.1816C114.519 62.834 113.767 62.6602 112.795 62.6602H109.824V69ZM111.242 65.6016V63.7676H112.777C113.394 63.7676 113.824 63.8457 114.066 64.002C114.312 64.1582 114.435 64.3613 114.435 64.6113C114.435 64.8965 114.312 65.1328 114.066 65.3203C113.824 65.5078 113.394 65.6016 112.777 65.6016H111.242ZM114.675 69H116.269L114.166 66.1172L112.601 66.0762L114.675 69Z" fill="#3A4F39"/>
<path d="M117.201 69H118.537L120.823 64.3945C120.869 64.293 120.912 64.1953 120.951 64.1016C120.994 64.0078 121.032 63.9121 121.063 63.8145H121.121C121.157 63.9121 121.194 64.0078 121.233 64.1016C121.272 64.1953 121.317 64.293 121.368 64.3945L123.641 69H125.118L121.86 62.6309H120.448L117.201 69ZM118.649 67.6699H123.6L123.096 66.5684L119.153 66.5625L118.649 67.6699Z" fill="#3A4F39"/>
<path d="M125.23 63.7734H127.942V69H129.36V63.7734H132.079V62.6602H125.23V63.7734Z" fill="#3A4F39"/>
<path d="M133.978 69H135.39V62.6602H133.978V69Z" fill="#3A4F39"/>
<path d="M137.805 66.0176C137.805 67.0293 138.157 67.8086 138.86 68.3555C139.563 68.9023 140.469 69.1758 141.579 69.1758C142.684 69.1758 143.588 68.9023 144.291 68.3555C144.999 67.8086 145.352 67.0293 145.352 66.0176V65.6426C145.352 64.6309 144.999 63.8516 144.291 63.3047C143.588 62.7578 142.684 62.4844 141.579 62.4844C140.469 62.4844 139.563 62.7578 138.86 63.3047C138.157 63.8516 137.805 64.6309 137.805 65.6426V66.0176ZM139.247 66.0703V65.5957C139.247 64.9629 139.457 64.4766 139.879 64.1367C140.305 63.7969 140.872 63.627 141.579 63.627C142.282 63.627 142.846 63.7969 143.272 64.1367C143.698 64.4766 143.911 64.9629 143.911 65.5957V66.0703C143.911 66.6992 143.698 67.1836 143.272 67.5234C142.846 67.8633 142.282 68.0332 141.579 68.0332C140.872 68.0332 140.305 67.8633 139.879 67.5234C139.457 67.1836 139.247 66.6992 139.247 66.0703Z" fill="#3A4F39"/>
<path d="M147.755 69H149.05V65.0215C149.05 64.9316 149.044 64.834 149.032 64.7285C149.021 64.623 149.007 64.5254 148.991 64.4355H149.056C149.103 64.5137 149.155 64.5957 149.214 64.6816C149.277 64.7676 149.345 64.8535 149.419 64.9395L153.023 69H154.546V62.6602H153.251V66.6211C153.251 66.7148 153.255 66.8223 153.263 66.9434C153.275 67.0605 153.29 67.166 153.31 67.2598H153.251C153.196 67.1777 153.138 67.0898 153.075 66.9961C153.013 66.9023 152.945 66.8125 152.87 66.7266L149.267 62.6602H147.755V69Z" fill="#3A4F39"/>
</svg>
