<svg width="18" height="19" viewBox="0 0 18 19" fill="none" xmlns="http://www.w3.org/2000/svg">
    <path d="M14.8114 18.8608H3.18536C2.8677 18.8607 2.55366 18.7934 2.26388 18.6632C1.9741 18.5331 1.71515 18.3431 1.50405 18.1057C1.29294 17.8684 1.13447 17.589 1.03904 17.286C0.943607 16.983 0.913385 16.6633 0.950358 16.3478L2.09736 6.59779C2.16186 6.04979 2.42547 5.5446 2.8381 5.17825C3.25072 4.8119 3.78357 4.60995 4.33536 4.61079H5.25136C5.25136 3.61623 5.64645 2.66241 6.34971 1.95914C7.05297 1.25588 8.0068 0.860794 9.00136 0.860794C9.99592 0.860794 10.9497 1.25588 11.653 1.95914C12.3563 2.66241 12.7514 3.61623 12.7514 4.61079H13.6674C14.2185 4.61113 14.7504 4.81356 15.1623 5.17975C15.5742 5.54595 15.8375 6.05048 15.9024 6.59779L17.0494 16.3478C17.0864 16.6635 17.0561 16.9836 16.9605 17.2867C16.8648 17.5899 16.7061 17.8694 16.4947 18.1069C16.2832 18.3443 16.0239 18.5342 15.7338 18.6642C15.4436 18.7941 15.1293 18.8611 14.8114 18.8608ZM4.33536 6.11079C4.15198 6.11097 3.97502 6.17832 3.83793 6.30011C3.70084 6.42191 3.61312 6.58971 3.59136 6.77179L2.43536 16.5208C2.42262 16.6262 2.43239 16.733 2.46402 16.8343C2.49565 16.9356 2.54841 17.029 2.61883 17.1084C2.68925 17.1878 2.77571 17.2514 2.87251 17.2949C2.96931 17.3384 3.07423 17.3609 3.18036 17.3608H14.8114C14.9175 17.3609 15.0224 17.3384 15.1192 17.2949C15.216 17.2514 15.3025 17.1878 15.3729 17.1084C15.4433 17.029 15.4961 16.9356 15.5277 16.8343C15.5593 16.733 15.5691 16.6262 15.5564 16.5208L14.4104 6.77079C14.3884 6.58863 14.3004 6.42081 14.1632 6.29903C14.0259 6.17725 13.8488 6.10994 13.6654 6.10979H12.7494V6.86079C12.7494 7.05971 12.6703 7.25047 12.5297 7.39112C12.389 7.53178 12.1983 7.61079 11.9994 7.61079C11.8004 7.61079 11.6097 7.53178 11.469 7.39112C11.3284 7.25047 11.2494 7.05971 11.2494 6.86079V6.11079H6.74936V6.86079C6.74936 7.05971 6.67034 7.25047 6.52969 7.39112C6.38904 7.53178 6.19827 7.61079 5.99936 7.61079C5.80045 7.61079 5.60968 7.53178 5.46903 7.39112C5.32838 7.25047 5.24936 7.05971 5.24936 6.86079V6.11079H4.33536ZM8.99836 2.36079C8.40186 2.36159 7.83003 2.5989 7.40824 3.02068C6.98646 3.44247 6.74915 4.0143 6.74836 4.61079H11.2484C11.2476 4.0143 11.0103 3.44247 10.5885 3.02068C10.1667 2.5989 9.59485 2.36159 8.99836 2.36079Z" fill="#27AE60"/>
    </svg>
    