<svg width="16" height="10" viewBox="0 0 16 10" fill="none" xmlns="http://www.w3.org/2000/svg">
    <path d="M4.33802 9.27029L0.227351 5.27029L0.213992 5.25729L0.206798 5.25129L0.200632 5.24429L0.193438 5.23629L0.1883 5.23029L0.180079 5.22129L0.171857 5.21129L0.156442 5.19029L0.145138 5.17629L0.134861 5.16229L0.124585 5.14729V5.14129L0.115336 5.13229V5.12529V5.11729L0.104031 5.10829V5.10229L0.0906715 5.09029C0.0110102 4.94483 -0.0172571 4.7779 0.0102293 4.61525C0.0377156 4.4526 0.119429 4.30327 0.242766 4.19029L4.33802 0.210292C4.48345 0.0737383 4.67818 -0.00176942 4.88027 3.14899e-05C5.08236 0.0018324 5.27564 0.0807978 5.41848 0.21992C5.56131 0.359042 5.64228 0.54719 5.64394 0.743839C5.6456 0.940488 5.56782 1.1299 5.42735 1.27129L2.63312 3.99029H15.1594C15.3638 3.99029 15.5598 4.06931 15.7044 4.20996C15.8489 4.35061 15.9301 4.54138 15.9301 4.74029C15.9301 4.9392 15.8489 5.12997 15.7044 5.27062C15.5598 5.41127 15.3638 5.49029 15.1594 5.49029H2.63312L5.42735 8.21029C5.50308 8.27895 5.56381 8.36175 5.60594 8.45375C5.64807 8.54575 5.67072 8.64507 5.67254 8.74577C5.67437 8.84647 5.65533 8.9465 5.61657 9.03989C5.5778 9.13328 5.52011 9.21811 5.44692 9.28933C5.37373 9.36055 5.28655 9.41669 5.19057 9.45441C5.0946 9.49214 4.99181 9.51066 4.88832 9.50888C4.78483 9.50711 4.68277 9.48506 4.58822 9.44407C4.49368 9.40308 4.40858 9.34398 4.33802 9.27029Z" fill="#969998"/>
</svg>    