<svg width="18" height="18" viewBox="0 0 18 18" fill="none" xmlns="http://www.w3.org/2000/svg">
<path d="M1.62514 17.9879C1.35475 17.9861 1.08906 17.9171 0.851997 17.787C0.614933 17.6569 0.413946 17.47 0.267143 17.2429C0.118585 17.0192 0.028719 16.7617 0.00582556 16.4941C-0.0170679 16.2266 0.0277478 15.9576 0.136143 15.7119L1.18714 13.2589C0.150297 11.3696 -0.170171 9.16963 0.284586 7.06303C0.739344 4.95643 1.9388 3.0846 3.66269 1.79125C5.38659 0.49791 7.5192 -0.130123 9.66892 0.0224835C11.8186 0.17509 13.8411 1.09809 15.365 2.62199C16.8889 4.14589 17.8119 6.1684 17.9645 8.31811C18.1172 10.4678 17.4891 12.6004 16.1958 14.3243C14.9024 16.0482 13.0306 17.2477 10.924 17.7024C8.8174 18.1572 6.61746 17.8367 4.72814 16.7999L2.27514 17.8509C2.07006 17.9403 1.84888 17.987 1.62514 17.9879ZM9.04014 1.61689C7.7373 1.61741 6.45814 1.96513 5.33433 2.62424C4.21051 3.28335 3.28265 4.23005 2.64625 5.36688C2.00984 6.50371 1.68789 7.78959 1.71354 9.09218C1.73918 10.3948 2.11149 11.667 2.79214 12.7779L3.01214 13.1369L1.63314 16.3539L4.85014 14.9749L5.21014 15.1949C6.17555 15.7865 7.26489 16.1464 8.39273 16.2463C9.52057 16.3462 10.6562 16.1835 11.7106 15.7708C12.765 15.3582 13.7094 14.7068 14.4698 13.8679C15.2302 13.029 15.7859 12.0253 16.0933 10.9356C16.4007 9.84583 16.4514 8.6997 16.2415 7.58708C16.0316 6.47446 15.5667 5.4256 14.8834 4.52279C14.2001 3.61998 13.3168 2.88776 12.303 2.38359C11.2892 1.87941 10.1724 1.61698 9.04014 1.61689ZM12.2991 11.3879H5.78314C5.57206 11.3805 5.3721 11.2914 5.22539 11.1395C5.07868 10.9876 4.99669 10.7846 4.99669 10.5734C4.99669 10.3622 5.07868 10.1592 5.22539 10.0073C5.3721 9.85534 5.57206 9.76628 5.78314 9.75889H12.2991C12.4085 9.75505 12.5175 9.77328 12.6197 9.81249C12.7219 9.8517 12.8151 9.91108 12.8938 9.98709C12.9725 10.0631 13.0351 10.1542 13.0779 10.2549C13.1206 10.3556 13.1427 10.464 13.1427 10.5734C13.1427 10.6828 13.1206 10.7911 13.0779 10.8919C13.0351 10.9926 12.9725 11.0837 12.8938 11.1597C12.8151 11.2357 12.7219 11.2951 12.6197 11.3343C12.5175 11.3735 12.4085 11.3917 12.2991 11.3879ZM8.22714 8.13189H5.78314C5.57206 8.12449 5.3721 8.03544 5.22539 7.8835C5.07868 7.73156 4.99669 7.5286 4.99669 7.31739C4.99669 7.10618 5.07868 6.90322 5.22539 6.75128C5.3721 6.59934 5.57206 6.51028 5.78314 6.50289H8.22714C8.43822 6.51028 8.63819 6.59934 8.7849 6.75128C8.9316 6.90322 9.0136 7.10618 9.0136 7.31739C9.0136 7.5286 8.9316 7.73156 8.7849 7.8835C8.63819 8.03544 8.43822 8.12449 8.22714 8.13189Z" fill="#686969"/>
</svg>
