<svg width="18" height="15" viewBox="0 0 18 15" fill="none" xmlns="http://www.w3.org/2000/svg">
<path d="M2.25 15H15.75C16.3465 14.9992 16.9183 14.7619 17.3401 14.3401C17.7619 13.9183 17.9992 13.3465 18 12.75V2.25C17.9992 1.65351 17.7619 1.08167 17.3401 0.659886C16.9183 0.238102 16.3465 0.000793738 15.75 0L2.25 0C1.65351 0.000793738 1.08167 0.238102 0.659887 0.659886C0.238102 1.08167 0.000793738 1.65351 0 2.25V12.75C0.000793738 13.3465 0.238102 13.9183 0.659887 14.3401C1.08167 14.7619 1.65351 14.9992 2.25 15ZM13.5 5.56L16.5 8.56V12.75C16.4997 12.9488 16.4206 13.1394 16.28 13.28C16.1394 13.4206 15.9488 13.4997 15.75 13.5H2.25C2.09783 13.4988 1.94958 13.4517 1.82466 13.3648C1.69975 13.2779 1.60401 13.1553 1.55 13.013L6 8.561L8.25 10.811L13.5 5.56ZM6 7.06C5.8029 7.05936 5.60764 7.09784 5.42551 7.17319C5.24339 7.24855 5.07803 7.35929 4.939 7.499L1.5 10.939V2.25C1.50026 2.05117 1.57937 1.86056 1.71996 1.71996C1.86056 1.57937 2.05117 1.50026 2.25 1.5H15.75C15.9488 1.50026 16.1394 1.57937 16.28 1.71996C16.4206 1.86056 16.4997 2.05117 16.5 2.25V6.44L14.56 4.5C14.4212 4.36032 14.256 4.24959 14.074 4.17423C13.8921 4.09887 13.6969 4.06038 13.5 4.061C13.3031 4.06049 13.108 4.09903 12.9261 4.17438C12.7441 4.24974 12.5789 4.36041 12.44 4.5L8.25 8.689L7.06 7.499C6.92109 7.35941 6.75589 7.24874 6.57395 7.17338C6.392 7.09803 6.19693 7.05949 6 7.06ZM4.5 6C4.89782 6 5.27936 5.84196 5.56066 5.56066C5.84196 5.27936 6 4.89782 6 4.5C6 4.10218 5.84196 3.72064 5.56066 3.43934C5.27936 3.15804 4.89782 3 4.5 3C4.10218 3 3.72064 3.15804 3.43934 3.43934C3.15804 3.72064 3 4.10218 3 4.5C3 4.89782 3.15804 5.27936 3.43934 5.56066C3.72064 5.84196 4.10218 6 4.5 6Z" fill="#27AE60"/>
</svg>
