<svg width="18" height="16" viewBox="0 0 18 16" fill="none" xmlns="http://www.w3.org/2000/svg">
    <path d="M8.99798 15.8608C8.35779 15.8038 7.74833 15.5604 7.24498 15.1608C6.57916 14.6918 5.94848 14.1747 5.35798 13.6138C4.23398 12.5718 2.89798 11.1708 1.38298 9.4478C0.453174 8.35816 -0.0384933 6.96186 0.00345568 5.53006C0.0454046 4.09825 0.617976 2.73313 1.60998 1.6998C2.55171 0.695049 3.84321 0.0901579 5.21797 0.00995774C6.59272 -0.0702424 7.9458 0.380369 8.99798 1.2688C10.0503 0.380436 11.4032 -0.0704766 12.7781 0.00896382C14.153 0.0884042 15.445 0.692146 16.388 1.6958C17.3814 2.7294 17.9548 4.09555 17.9968 5.52852C18.0387 6.96149 17.5462 8.35884 16.615 9.4488C15.101 11.1708 13.764 12.5728 12.64 13.6148C12.0497 14.1746 11.4193 14.6907 10.754 15.1588C10.25 15.5597 9.63942 15.8038 8.99798 15.8608ZM5.53198 1.5998C4.99997 1.5998 4.47358 1.70846 3.98505 1.9191C3.49653 2.12975 3.05617 2.43794 2.69098 2.8248C1.97792 3.56146 1.56436 4.53701 1.53072 5.5617C1.49708 6.58638 1.84577 7.58695 2.50898 8.3688C3.98998 10.0538 5.28998 11.4168 6.37298 12.4188C6.90487 12.9262 7.47304 13.3941 8.07298 13.8188C8.34385 14.0349 8.66006 14.187 8.99798 14.2638C9.33563 14.1866 9.65149 14.0341 9.92198 13.8178C10.5219 13.3931 11.0901 12.9252 11.622 12.4178C12.705 11.4178 14.005 10.0528 15.486 8.3678C16.149 7.58586 16.4975 6.58533 16.4639 5.56071C16.4302 4.53608 16.0168 3.56057 15.304 2.8238C14.6216 2.09632 13.6861 1.65857 12.6903 1.60088C11.6946 1.5432 10.7147 1.86998 9.95298 2.5138L8.99798 3.3148L8.04098 2.5148C7.33757 1.92612 6.45021 1.60238 5.53298 1.5998H5.53198Z" fill="#27AE60"/>
    </svg>
    