<svg width="36" height="36" viewBox="0 0 36 36" fill="none" xmlns="http://www.w3.org/2000/svg">
    <g clip-path="url(#clip0_211_484)">
        <path d="M18 27.441C16.3367 28.4183 14.4447 28.9388 12.5155 28.9498C10.5863 28.9608 8.68848 28.462 7.01409 27.5037C5.33969 26.5455 3.94817 25.1619 2.98039 23.493C2.01262 21.8241 1.50293 19.9292 1.50293 18C1.50293 16.0708 2.01262 14.1758 2.98039 12.5069C3.94817 10.838 5.33969 9.45446 7.01409 8.49623C8.68848 7.538 10.5863 7.03915 12.5155 7.05017C14.4447 7.06119 16.3367 7.58169 18 8.55899C19.6633 7.58169 21.5554 7.06119 23.4845 7.05017C25.4137 7.03915 27.3115 7.538 28.9859 8.49623C30.6603 9.45446 32.0518 10.838 33.0196 12.5069C33.9874 14.1758 34.4971 16.0708 34.4971 18C34.4971 19.9292 33.9874 21.8241 33.0196 23.493C32.0518 25.1619 30.6603 26.5455 28.9859 27.5037C27.3115 28.462 25.4137 28.9608 23.4845 28.9498C21.5554 28.9388 19.6633 28.4183 18 27.441ZM20.553 25.365C21.76 25.8555 23.0691 26.0419 24.3651 25.9077C25.661 25.7735 26.9042 25.3228 27.985 24.5954C29.0659 23.8679 29.9515 22.886 30.5637 21.7359C31.176 20.5858 31.4962 19.3029 31.4962 18C31.4962 16.6971 31.176 15.4142 30.5637 14.2641C29.9515 13.114 29.0659 12.1321 27.985 11.4046C26.9042 10.6771 25.661 10.2265 24.3651 10.0923C23.0691 9.95807 21.76 10.1444 20.553 10.635C22.3883 12.6484 23.4039 15.2756 23.4 18C23.4 20.835 22.3215 23.421 20.553 25.365ZM15.447 10.635C14.24 10.1444 12.9309 9.95807 11.6349 10.0923C10.339 10.2265 9.09586 10.6771 8.01496 11.4046C6.93407 12.1321 6.04854 13.114 5.43628 14.2641C4.82402 15.4142 4.5038 16.6971 4.5038 18C4.5038 19.3029 4.82402 20.5858 5.43628 21.7359C6.04854 22.886 6.93407 23.8679 8.01496 24.5954C9.09586 25.3228 10.339 25.7735 11.6349 25.9077C12.9309 26.0419 14.24 25.8555 15.447 25.365C13.6117 23.3516 12.5961 20.7244 12.6 18C12.6 15.165 13.6785 12.579 15.447 10.635ZM18 12.3075C17.2393 13.0474 16.6348 13.9324 16.2226 14.9103C15.8103 15.8881 15.5986 16.9388 15.6 18C15.6 20.232 16.5195 22.248 18 23.6925C18.7608 22.9526 19.3652 22.0675 19.7774 21.0897C20.1897 20.1119 20.4014 19.0612 20.4 18C20.4014 16.9388 20.1897 15.8881 19.7774 14.9103C19.3652 13.9324 18.7608 13.0474 18 12.3075Z" fill="#27AE60"/>
    </g>
    <defs>
        <clipPath id="clip0_211_484">
            <rect width="36" height="36" fill="white"/>
        </clipPath>
    </defs>
</svg>
