<svg width="17" height="18" viewBox="0 0 17 18" fill="none" xmlns="http://www.w3.org/2000/svg">
    <path opacity="0.6" d="M8.45018 18.0009C8.06585 18.0002 7.68775 17.9036 7.35018 17.7199L0.872184 14.1889C0.629172 14.057 0.426265 13.8619 0.284873 13.6243C0.143481 13.3867 0.0688477 13.1154 0.0688477 12.8389C0.0688477 12.5624 0.143481 12.291 0.284873 12.0534C0.426265 11.8158 0.629172 11.6207 0.872184 11.4889L1.92018 10.9169L0.872184 10.3489C0.629172 10.217 0.426265 10.0219 0.284873 9.78433C0.143481 9.54672 0.0688477 9.27536 0.0688477 8.99886C0.0688477 8.72237 0.143481 8.451 0.284873 8.21339C0.426265 7.97579 0.629172 7.78075 0.872184 7.64886L1.92018 7.08086L0.872184 6.50986C0.629172 6.37798 0.426265 6.18294 0.284873 5.94533C0.143481 5.70773 0.0688477 5.43636 0.0688477 5.15986C0.0688477 4.88337 0.143481 4.612 0.284873 4.37439C0.426265 4.13679 0.629172 3.94175 0.872184 3.80986L7.34718 0.282863C7.68556 0.0978308 8.06502 0.000854492 8.45068 0.000854492C8.83634 0.000854492 9.21581 0.0978308 9.55418 0.282863L16.0282 3.81386C16.2712 3.94575 16.4741 4.14079 16.6155 4.37839C16.7569 4.616 16.8315 4.88737 16.8315 5.16386C16.8315 5.44036 16.7569 5.71173 16.6155 5.94933C16.4741 6.18694 16.2712 6.38198 16.0282 6.51386L14.9812 7.08486L16.0282 7.65686C16.2712 7.78875 16.4741 7.98379 16.6155 8.22139C16.7569 8.459 16.8315 8.73037 16.8315 9.00686C16.8315 9.28336 16.7569 9.55472 16.6155 9.79233C16.4741 10.0299 16.2712 10.225 16.0282 10.3569L14.9812 10.9279L16.0282 11.4999C16.2712 11.6317 16.4741 11.8268 16.6155 12.0644C16.7569 12.302 16.8315 12.5734 16.8315 12.8499C16.8315 13.1264 16.7569 13.3977 16.6155 13.6353C16.4741 13.8729 16.2712 14.068 16.0282 14.1999L9.55318 17.7189C9.21475 17.9033 8.8356 18.0002 8.45018 18.0009ZM3.52318 11.7949L1.60718 12.8399L8.08218 16.3719C8.1949 16.4334 8.32126 16.4656 8.44968 16.4656C8.5781 16.4656 8.70447 16.4334 8.81718 16.3719L15.2932 12.8399L13.3722 11.7949L9.55318 13.8809C9.21481 14.0659 8.83534 14.1629 8.44968 14.1629C8.06402 14.1629 7.68456 14.0659 7.34618 13.8809L3.52318 11.7949ZM3.52318 7.95686L1.60718 9.00086L8.08218 12.5329C8.1949 12.5944 8.32126 12.6266 8.44968 12.6266C8.5781 12.6266 8.70447 12.5944 8.81718 12.5329L15.2932 9.00086L13.3722 7.95586L9.55318 10.0409C9.21481 10.2259 8.83534 10.3229 8.44968 10.3229C8.06402 10.3229 7.68456 10.2259 7.34618 10.0409L3.52318 7.95686ZM8.45018 1.53686C8.3216 1.53702 8.19509 1.56933 8.08218 1.63086L1.60718 5.16186L8.08218 8.69386C8.1949 8.75539 8.32126 8.78764 8.44968 8.78764C8.5781 8.78764 8.70447 8.75539 8.81718 8.69386L15.2932 5.16186L8.81718 1.62986C8.70463 1.56834 8.57845 1.53602 8.45018 1.53586V1.53686Z" fill="#27AE60"/>
</svg>
