<svg width="14" height="14" viewBox="0 0 14 14" fill="none" xmlns="http://www.w3.org/2000/svg">
    <path d="M12.8579 12.858C12.9489 12.7667 13 12.643 13 12.514C13 12.385 12.9489 12.2613 12.8579 12.17L9.35324 8.66667C10.0353 7.82958 10.4069 6.78243 10.4052 5.70267C10.4038 4.45588 9.90791 3.26055 9.0263 2.37894C8.1447 1.49732 6.94939 1.00141 5.70261 1C4.45583 1.00141 3.26053 1.49732 2.37892 2.37894C1.49732 3.26055 1.00141 4.45588 1 5.70267C1.00141 6.94946 1.49732 8.14478 2.37892 9.0264C3.26053 9.90801 4.45583 10.4039 5.70261 10.4053C6.78236 10.407 7.8295 10.0354 8.66658 9.35333L12.1712 12.858C12.2622 12.9488 12.3854 12.9998 12.5139 13C12.5777 13.0001 12.641 12.9876 12.7 12.9632C12.759 12.9389 12.8127 12.9031 12.8579 12.858ZM9.43257 5.70267C9.43151 6.69142 9.03826 7.63938 8.33911 8.33853C7.63997 9.03769 6.69202 9.43094 5.70328 9.432C4.71442 9.43112 3.7663 9.03794 3.06701 8.33877C2.36772 7.63959 1.97438 6.69154 1.97332 5.70267C1.97438 4.71391 2.36763 3.76596 3.06677 3.0668C3.76592 2.36764 4.71387 1.97439 5.70261 1.97333C6.69147 1.97422 7.63959 2.36739 8.33888 3.06656C9.03817 3.76574 9.43151 4.7138 9.43257 5.70267Z" fill="#7F8080" stroke="#7F8080" stroke-width="0.5"/>
</svg>    