<svg width="18" height="18" viewBox="0 0 18 18" fill="none" xmlns="http://www.w3.org/2000/svg">
<path d="M8.99187 18C8.76487 18 8.53987 17.992 8.32387 17.975C7.84863 17.9311 7.40271 17.7259 7.06017 17.3936C6.71764 17.0612 6.49911 16.6217 6.44087 16.148L6.36987 15.657C6.33532 15.5035 6.26607 15.36 6.16744 15.2375C6.0688 15.1149 5.94341 15.0166 5.80087 14.95C5.67687 14.883 5.55387 14.812 5.43587 14.738C5.25368 14.6194 5.04219 14.5536 4.82487 14.548C4.72709 14.5469 4.63001 14.5645 4.53887 14.6L4.07687 14.784C3.81266 14.8887 3.53108 14.9427 3.24687 14.943C2.91469 14.9485 2.58632 14.8716 2.29108 14.7193C1.99583 14.567 1.7429 14.3439 1.55487 14.07C1.30304 13.6998 1.07908 13.3114 0.884873 12.908C0.685531 12.4746 0.640617 11.986 0.757605 11.5235C0.874593 11.061 1.14643 10.6525 1.52787 10.366L1.91887 10.056C2.03471 9.94993 2.12462 9.81866 2.18167 9.67232C2.23871 9.52598 2.26136 9.36848 2.24787 9.212C2.24787 9.149 2.24787 9.079 2.24787 9C2.24787 8.921 2.24787 8.851 2.24787 8.788C2.26136 8.63152 2.23871 8.47402 2.18167 8.32768C2.12462 8.18134 2.03471 8.05007 1.91887 7.944L1.52787 7.634C1.14658 7.34738 0.874857 6.93889 0.757881 6.47645C0.640905 6.014 0.685719 5.52545 0.884873 5.092C1.07892 4.6885 1.30287 4.30008 1.55487 3.93C1.7429 3.6561 1.99583 3.43303 2.29108 3.2807C2.58632 3.12836 2.91469 3.05151 3.24687 3.057C3.53108 3.05734 3.81266 3.11128 4.07687 3.216L4.53887 3.4C4.63001 3.43545 4.72709 3.4531 4.82487 3.452C5.04219 3.44636 5.25368 3.38059 5.43587 3.262C5.55387 3.188 5.67687 3.116 5.80087 3.05C5.9435 2.98356 6.06897 2.88526 6.16761 2.76269C6.26626 2.64011 6.33546 2.49653 6.36987 2.343L6.44087 1.853C6.49904 1.37908 6.71749 0.939287 7.06 0.606606C7.4025 0.273924 7.84846 0.0683519 8.32387 0.024C8.54387 0.008 8.76787 0 8.99187 0C9.21587 0 9.44087 0.008 9.66087 0.024C10.1361 0.0681685 10.5819 0.273575 10.9242 0.606104C11.2666 0.938633 11.4849 1.37827 11.5429 1.852L11.6149 2.342C11.6488 2.49558 11.7177 2.63926 11.8162 2.76188C11.9148 2.8845 12.0402 2.98275 12.1829 3.049C12.3019 3.112 12.4219 3.182 12.5489 3.261C12.7311 3.37959 12.9426 3.44536 13.1599 3.451C13.258 3.45216 13.3554 3.43451 13.4469 3.399L13.9079 3.215C14.1721 3.11035 14.4537 3.05641 14.7379 3.056C15.07 3.0506 15.3984 3.12749 15.6936 3.27982C15.9888 3.43214 16.2418 3.65517 16.4299 3.929C16.6826 4.29902 16.9072 4.68744 17.1019 5.091C17.301 5.52445 17.3458 6.013 17.2289 6.47545C17.1119 6.93789 16.8402 7.34638 16.4589 7.633L16.0669 7.943C15.9511 8.04907 15.8613 8.18037 15.8044 8.32673C15.7475 8.47309 15.7251 8.63058 15.7389 8.787C15.7389 8.857 15.7389 8.928 15.7389 8.999C15.7389 9.07 15.7389 9.141 15.7389 9.211C15.7251 9.36742 15.7475 9.52491 15.8044 9.67127C15.8613 9.81763 15.9511 9.94893 16.0669 10.055L16.4589 10.365C16.8403 10.6515 17.1122 11.06 17.2291 11.5225C17.3461 11.985 17.3012 12.4736 17.1019 12.907C16.907 13.3105 16.6824 13.6989 16.4299 14.069C16.2418 14.3428 15.9888 14.5659 15.6936 14.7182C15.3984 14.8705 15.07 14.9474 14.7379 14.942C14.4537 14.9416 14.1721 14.8876 13.9079 14.783L13.4469 14.599C13.3554 14.5635 13.258 14.5458 13.1599 14.547C12.9426 14.5526 12.7311 14.6184 12.5489 14.737C12.4209 14.817 12.3019 14.886 12.1829 14.949C12.0403 15.0154 11.915 15.1137 11.8165 15.2363C11.718 15.3589 11.649 15.5025 11.6149 15.656L11.5429 16.147C11.485 16.6207 11.2668 17.0603 10.9244 17.3927C10.582 17.7251 10.1361 17.9302 9.66087 17.974C9.44487 17.992 9.21987 18 8.99187 18ZM4.81887 13.046C5.31767 13.0535 5.80479 13.1981 6.22687 13.464C6.33987 13.533 6.42687 13.584 6.51087 13.628C6.86168 13.8034 7.16615 14.059 7.39952 14.3742C7.63288 14.6894 7.78855 15.0553 7.85387 15.442L7.92487 15.932C7.93509 16.0673 7.99089 16.1952 8.08315 16.2947C8.17542 16.3943 8.2987 16.4596 8.43287 16.48C8.61287 16.493 8.80087 16.5 8.99187 16.5C9.18287 16.5 9.37087 16.493 9.55087 16.48C9.68505 16.4596 9.80833 16.3943 9.90059 16.2947C9.99286 16.1952 10.0487 16.0673 10.0589 15.932L10.1299 15.442C10.1954 15.0552 10.3512 14.6893 10.5848 14.3741C10.8183 14.0589 11.1229 13.8033 11.4739 13.628C11.5649 13.579 11.6539 13.528 11.7589 13.464C12.1806 13.198 12.6674 13.0534 13.1659 13.046C13.4521 13.0452 13.7359 13.0991 14.0019 13.205L14.4629 13.389C14.5499 13.4246 14.6429 13.4433 14.7369 13.444C14.8249 13.4469 14.9122 13.4284 14.9915 13.39C15.0707 13.3517 15.1395 13.2947 15.1919 13.224C15.4021 12.9157 15.5889 12.5921 15.7509 12.256C15.8015 12.1302 15.8072 11.9909 15.7671 11.8614C15.7271 11.732 15.6436 11.6202 15.5309 11.545L15.1389 11.234C14.8363 10.9848 14.597 10.6675 14.4405 10.3081C14.2841 9.94864 14.215 9.55727 14.2389 9.166V9V8.834C14.2151 8.44259 14.2842 8.0511 14.4406 7.69152C14.597 7.33193 14.8363 7.01445 15.1389 6.765L15.5309 6.455C15.6437 6.37962 15.7272 6.2677 15.7672 6.13804C15.8073 6.00839 15.8015 5.8689 15.7509 5.743C15.5889 5.40686 15.4021 5.08329 15.1919 4.775C15.1394 4.70399 15.0706 4.64678 14.9911 4.60828C14.9117 4.56978 14.8241 4.55116 14.7359 4.554C14.6422 4.55479 14.5495 4.57346 14.4629 4.609L14.0019 4.794C13.7355 4.8998 13.4515 4.95376 13.1649 4.953C12.6667 4.94577 12.1801 4.80112 11.7589 4.535C11.6689 4.481 11.5719 4.424 11.4739 4.37C11.123 4.19516 10.8183 3.9399 10.5848 3.62502C10.3512 3.31014 10.1954 2.94454 10.1299 2.558L10.0589 2.068C10.0497 1.93242 9.99422 1.80411 9.90175 1.70453C9.80927 1.60496 9.68541 1.54017 9.55087 1.521C9.37087 1.508 9.18287 1.501 8.99187 1.501C8.80087 1.501 8.61287 1.508 8.43287 1.521C8.29834 1.54017 8.17447 1.60496 8.082 1.70453C7.98953 1.80411 7.93406 1.93242 7.92487 2.068L7.85387 2.558C7.78882 2.94455 7.63335 3.31026 7.40014 3.62532C7.16692 3.94038 6.86257 4.19588 6.51187 4.371C6.42687 4.416 6.33687 4.471 6.22787 4.536C5.80623 4.80206 5.31939 4.94669 4.82087 4.954C4.53458 4.95422 4.25086 4.89992 3.98487 4.794L3.52487 4.609C3.43818 4.57353 3.34554 4.55487 3.25187 4.554C3.16364 4.55107 3.07601 4.56966 2.99657 4.60816C2.91712 4.64667 2.84824 4.70393 2.79587 4.775C2.58538 5.08328 2.39819 5.40685 2.23587 5.743C2.1858 5.86897 2.18031 6.00828 2.22033 6.13779C2.26035 6.26731 2.34346 6.37924 2.45587 6.455L2.84787 6.765C3.15056 7.01434 3.38991 7.33181 3.54634 7.69142C3.70277 8.05103 3.77183 8.44257 3.74787 8.834V9V9.166C3.77191 9.55729 3.70288 9.94871 3.54644 10.3082C3.39 10.6676 3.15061 10.9849 2.84787 11.234L2.45587 11.545C2.3434 11.6205 2.26021 11.7322 2.22017 11.8616C2.18013 11.991 2.18568 12.1302 2.23587 12.256C2.39802 12.5922 2.58522 12.9158 2.79587 13.224C2.8482 13.2948 2.91695 13.3518 2.99622 13.3902C3.07548 13.4285 3.16288 13.447 3.25087 13.444C3.34487 13.4432 3.43785 13.4245 3.52487 13.389L3.98487 13.205C4.25024 13.0995 4.53329 13.0455 4.81887 13.046ZM8.99187 12.746C8.25002 12.746 7.52484 12.526 6.90807 12.1137C6.2913 11.7015 5.81065 11.1156 5.52694 10.4301C5.24323 9.74468 5.1692 8.99048 5.31422 8.26294C5.45924 7.5354 5.81679 6.86722 6.34164 6.34294C6.86649 5.81865 7.53505 5.46181 8.26274 5.31757C8.99043 5.17333 9.74456 5.24816 10.4297 5.5326C11.1149 5.81704 11.7003 6.29831 12.1118 6.91552C12.5234 7.53273 12.7427 8.25815 12.7419 9C12.7408 9.99424 12.3454 10.9474 11.6424 11.6505C10.9393 12.3535 9.98611 12.7489 8.99187 12.75V12.746ZM8.99187 6.746C8.54704 6.746 8.11218 6.87786 7.74226 7.12492C7.37233 7.37197 7.08394 7.72314 6.91353 8.13404C6.74312 8.54494 6.69833 8.99714 6.78482 9.43348C6.87131 9.86983 7.08521 10.2708 7.39947 10.5856C7.71374 10.9004 8.11428 11.115 8.55047 11.2023C8.98667 11.2895 9.43894 11.2456 9.85014 11.0759C10.2613 10.9062 10.613 10.6184 10.8607 10.2489C11.1084 9.87946 11.2411 9.44484 11.2419 9C11.2411 8.40351 11.0038 7.83167 10.582 7.40989C10.1602 6.9881 9.58837 6.75079 8.99187 6.75V6.746Z" fill="#686969"/>
</svg>
