<svg width="17" height="18" viewBox="0 0 17 18" fill="none" xmlns="http://www.w3.org/2000/svg">
    <path opacity="0.6" d="M8.449 18.0009C8.06052 18.0004 7.67841 17.9021 7.338 17.7149L1.193 14.3349C0.831904 14.1359 0.530763 13.8437 0.320941 13.4888C0.11112 13.1338 0.000293146 12.7292 3.35009e-06 12.3169V5.68485C-0.000701053 5.27208 0.10969 4.86673 0.319596 4.51131C0.529502 4.1559 0.831187 3.86352 1.193 3.66485L7.339 0.285853C7.6791 0.0983405 8.06114 0 8.4495 0C8.83787 0 9.21991 0.0983405 9.56 0.285853L15.7 3.66585C16.063 3.86352 16.366 4.15534 16.5771 4.51063C16.7883 4.86592 16.8998 5.27155 16.9 5.68485V12.3159C16.9001 12.7286 16.7893 13.1338 16.5793 13.4892C16.3693 13.8445 16.0677 14.1369 15.706 14.3359L9.56 17.7159C9.2195 17.9027 8.8374 18.0007 8.449 18.0009ZM15.362 5.74885L9.217 9.43585V16.1519L14.964 12.9909C15.085 12.9247 15.1859 12.8272 15.2563 12.7086C15.3267 12.5901 15.3639 12.4547 15.364 12.3169V5.74885H15.362ZM1.536 5.74885V12.3159C1.53613 12.4537 1.57332 12.5891 1.64369 12.7076C1.71407 12.8262 1.81503 12.9237 1.936 12.9899L7.683 16.1509V9.43585L1.536 5.74885ZM8.449 1.53685C8.31921 1.53842 8.19192 1.57283 8.079 1.63685L2.643 4.62185L8.449 8.10085L14.255 4.61785L8.819 1.63185C8.70562 1.56957 8.57836 1.53689 8.449 1.53685Z" fill="#27AE60"/>
</svg>
