<svg width="13" height="18" viewBox="0 0 13 18" fill="none" xmlns="http://www.w3.org/2000/svg">
    <path d="M4.18331 18C3.94147 17.9989 3.70306 17.9428 3.48613 17.8359C3.26921 17.729 3.07947 17.5741 2.93131 17.383C2.78963 17.1992 2.69296 16.9849 2.64903 16.757C2.60509 16.5292 2.61512 16.2943 2.67831 16.071L4.00331 11L1.81031 10.118C1.58173 10.0264 1.37854 9.8812 1.21789 9.69459C1.05724 9.50798 0.943839 9.28546 0.887261 9.04581C0.830683 8.80616 0.832588 8.55642 0.892815 8.31766C0.953043 8.0789 1.06983 7.85814 1.23331 7.674L7.59131 0.522C7.73087 0.359682 7.90357 0.229117 8.09779 0.139081C8.292 0.0490446 8.50324 0.00162202 8.71731 0C8.95897 0.00121553 9.19719 0.0573987 9.41393 0.164296C9.63067 0.271192 9.82024 0.426001 9.96831 0.617C10.1099 0.800791 10.2065 1.01517 10.2505 1.24298C10.2944 1.4708 10.2844 1.70573 10.2213 1.929L8.89631 7L11.0893 7.878C11.3179 7.96958 11.5211 8.1148 11.6817 8.30141C11.8424 8.48802 11.9558 8.71054 12.0124 8.95019C12.0689 9.18984 12.067 9.43958 12.0068 9.67834C11.9466 9.9171 11.8298 10.1379 11.6663 10.322L5.30931 17.478C5.16974 17.6403 4.99704 17.7709 4.80283 17.8609C4.60861 17.951 4.39737 17.9984 4.18331 18ZM8.73631 1.542L2.38031 8.693L5.82931 10.073L4.16331 16.458L10.5203 9.307L7.07131 7.927L8.73631 1.542Z" fill="#27AE60"/>
</svg>